<?xml version="1.0" encoding="UTF-8"?>
<svg xmlns="http://www.w3.org/2000/svg" xmlns:xlink="http://www.w3.org/1999/xlink" width="800" height="800" viewBox="0 0 800 800">
<path fill-rule="nonzero" fill="rgb(82.745098%, 82.745098%, 82.745098%)" fill-opacity="1" d="M 799.917969 667.984375 L 799.917969 132.011719 L 0.0820312 132.011719 L 0.0820312 667.984375 Z M 799.917969 667.984375 "/>
<path fill="none" stroke-width="0.5" stroke-linecap="butt" stroke-linejoin="miter" stroke="rgb(0%, 0%, 0%)" stroke-opacity="1" stroke-miterlimit="10" d="M 618.511719 313.417969 L 626.757812 313.417969 L 626.757812 321.664062 L 618.511719 321.664062 L 618.511719 329.910156 L 610.265625 329.910156 L 610.265625 321.664062 L 602.019531 321.664062 L 602.019531 329.910156 L 593.773438 329.910156 L 593.773438 321.664062 L 602.019531 321.664062 L 602.019531 313.417969 L 593.773438 313.417969 L 593.773438 305.171875 L 585.527344 305.171875 L 585.527344 313.417969 L 577.28125 313.417969 L 577.28125 305.171875 L 585.527344 305.171875 L 585.527344 296.925781 L 593.773438 296.925781 L 593.773438 305.171875 L 602.019531 305.171875 L 602.019531 296.925781 L 593.773438 296.925781 L 593.773438 288.679688 L 602.019531 288.679688 L 602.019531 280.433594 L 593.773438 280.433594 L 593.773438 272.1875 L 585.527344 272.1875 L 585.527344 280.433594 L 577.28125 280.433594 L 577.28125 272.1875 L 585.527344 272.1875 L 585.527344 263.941406 L 593.773438 263.941406 L 593.773438 272.1875 L 602.019531 272.1875 L 602.019531 263.941406 L 610.265625 263.941406 L 610.265625 272.1875 L 602.019531 272.1875 L 602.019531 280.433594 L 610.265625 280.433594 L 610.265625 288.679688 L 618.511719 288.679688 L 618.511719 280.433594 L 610.265625 280.433594 L 610.265625 272.1875 L 618.511719 272.1875 L 618.511719 263.941406 L 626.757812 263.941406 L 626.757812 272.1875 L 635.003906 272.1875 L 635.003906 263.941406 L 626.757812 263.941406 L 626.757812 255.695312 L 635.003906 255.695312 L 635.003906 247.449219 L 626.757812 247.449219 L 626.757812 239.203125 L 618.511719 239.203125 L 618.511719 247.449219 L 610.265625 247.449219 L 610.265625 239.203125 L 618.511719 239.203125 L 618.511719 230.957031 L 626.757812 230.957031 L 626.757812 239.203125 L 635.003906 239.203125 L 635.003906 230.957031 L 643.25 230.957031 L 643.25 239.203125 L 635.003906 239.203125 L 635.003906 247.449219 L 643.25 247.449219 L 643.25 255.695312 L 651.496094 255.695312 L 651.496094 247.449219 L 659.742188 247.449219 L 659.742188 255.695312 L 651.496094 255.695312 L 651.496094 263.941406 L 643.25 263.941406 L 643.25 255.695312 L 635.003906 255.695312 L 635.003906 263.941406 L 643.25 263.941406 L 643.25 272.1875 L 635.003906 272.1875 L 635.003906 280.433594 L 643.25 280.433594 L 643.25 288.679688 L 651.496094 288.679688 L 651.496094 280.433594 L 643.25 280.433594 L 643.25 272.1875 L 651.496094 272.1875 L 651.496094 263.941406 L 659.742188 263.941406 L 659.742188 272.1875 L 667.988281 272.1875 L 667.988281 263.941406 L 676.234375 263.941406 L 676.234375 272.1875 L 667.988281 272.1875 L 667.988281 280.433594 L 676.234375 280.433594 L 676.234375 288.679688 L 684.480469 288.679688 L 684.480469 280.433594 L 676.234375 280.433594 L 676.234375 272.1875 L 684.480469 272.1875 L 684.480469 263.941406 L 692.726562 263.941406 L 692.726562 272.1875 L 700.972656 272.1875 L 700.972656 263.941406 L 692.726562 263.941406 L 692.726562 255.695312 L 700.972656 255.695312 L 700.972656 247.449219 L 692.726562 247.449219 L 692.726562 239.203125 L 684.480469 239.203125 L 684.480469 247.449219 L 676.234375 247.449219 L 676.234375 239.203125 L 684.480469 239.203125 L 684.480469 230.957031 L 692.726562 230.957031 L 692.726562 239.203125 L 700.972656 239.203125 L 700.972656 230.957031 L 709.21875 230.957031 L 709.21875 239.203125 L 700.972656 239.203125 L 700.972656 247.449219 L 709.21875 247.449219 L 709.21875 255.695312 L 717.464844 255.695312 L 717.464844 247.449219 L 725.710938 247.449219 L 725.710938 255.695312 L 717.464844 255.695312 L 717.464844 263.941406 L 709.21875 263.941406 L 709.21875 255.695312 L 700.972656 255.695312 L 700.972656 263.941406 L 709.21875 263.941406 L 709.21875 272.1875 L 700.972656 272.1875 L 700.972656 280.433594 L 709.21875 280.433594 L 709.21875 288.679688 L 717.464844 288.679688 L 717.464844 280.433594 L 725.710938 280.433594 L 725.710938 288.679688 L 717.464844 288.679688 L 717.464844 296.925781 L 709.21875 296.925781 L 709.21875 288.679688 L 700.972656 288.679688 L 700.972656 296.925781 L 692.726562 296.925781 L 692.726562 288.679688 L 700.972656 288.679688 L 700.972656 280.433594 L 692.726562 280.433594 L 692.726562 272.1875 L 684.480469 272.1875 L 684.480469 280.433594 L 692.726562 280.433594 L 692.726562 288.679688 L 684.480469 288.679688 L 684.480469 296.925781 L 676.234375 296.925781 L 676.234375 288.679688 L 667.988281 288.679688 L 667.988281 296.925781 L 676.234375 296.925781 L 676.234375 305.171875 L 667.988281 305.171875 L 667.988281 313.417969 L 676.234375 313.417969 L 676.234375 321.664062 L 684.480469 321.664062 L 684.480469 313.417969 L 676.234375 313.417969 L 676.234375 305.171875 L 684.480469 305.171875 L 684.480469 296.925781 L 692.726562 296.925781 L 692.726562 305.171875 L 700.972656 305.171875 L 700.972656 296.925781 L 709.21875 296.925781 L 709.21875 305.171875 L 700.972656 305.171875 L 700.972656 313.417969 L 709.21875 313.417969 L 709.21875 321.664062 L 717.464844 321.664062 L 717.464844 313.417969 L 725.710938 313.417969 L 725.710938 321.664062 L 717.464844 321.664062 L 717.464844 329.910156 L 709.21875 329.910156 L 709.21875 321.664062 L 700.972656 321.664062 L 700.972656 329.910156 L 709.21875 329.910156 L 709.21875 338.15625 L 700.972656 338.15625 L 700.972656 346.402344 L 709.21875 346.402344 L 709.21875 354.648438 L 717.464844 354.648438 L 717.464844 346.402344 L 709.21875 346.402344 L 709.21875 338.15625 L 717.464844 338.15625 L 717.464844 329.910156 L 725.710938 329.910156 L 725.710938 338.15625 L 733.957031 338.15625 L 733.957031 329.910156 L 742.203125 329.910156 L 742.203125 338.15625 L 733.957031 338.15625 L 733.957031 346.402344 L 742.203125 346.402344 L 742.203125 354.648438 L 750.449219 354.648438 L 750.449219 346.402344 L 742.203125 346.402344 L 742.203125 338.15625 L 750.449219 338.15625 L 750.449219 329.910156 L 758.695312 329.910156 L 758.695312 338.15625 L 766.941406 338.15625 L 766.941406 329.910156 L 758.695312 329.910156 L 758.695312 321.664062 L 766.941406 321.664062 L 766.941406 313.417969 L 758.695312 313.417969 L 758.695312 305.171875 L 750.449219 305.171875 L 750.449219 313.417969 L 742.203125 313.417969 L 742.203125 305.171875 L 750.449219 305.171875 L 750.449219 296.925781 L 758.695312 296.925781 L 758.695312 305.171875 L 766.941406 305.171875 L 766.941406 296.925781 L 775.1875 296.925781 L 775.1875 305.171875 L 766.941406 305.171875 L 766.941406 313.417969 L 775.1875 313.417969 L 775.1875 321.664062 L 783.433594 321.664062 L 783.433594 313.417969 L 791.679688 313.417969 L 791.679688 321.664062 L 783.433594 321.664062 L 783.433594 329.910156 L 775.1875 329.910156 L 775.1875 321.664062 L 766.941406 321.664062 L 766.941406 329.910156 L 775.1875 329.910156 L 775.1875 338.15625 L 766.941406 338.15625 L 766.941406 346.402344 L 775.1875 346.402344 L 775.1875 354.648438 L 783.433594 354.648438 L 783.433594 346.402344 L 791.679688 346.402344 L 791.679688 354.648438 L 783.433594 354.648438 L 783.433594 362.894531 L 775.1875 362.894531 L 775.1875 354.648438 L 766.941406 354.648438 L 766.941406 362.894531 L 758.695312 362.894531 L 758.695312 354.648438 L 766.941406 354.648438 L 766.941406 346.402344 L 758.695312 346.402344 L 758.695312 338.15625 L 750.449219 338.15625 L 750.449219 346.402344 L 758.695312 346.402344 L 758.695312 354.648438 L 750.449219 354.648438 L 750.449219 362.894531 L 742.203125 362.894531 L 742.203125 354.648438 L 733.957031 354.648438 L 733.957031 362.894531 L 742.203125 362.894531 L 742.203125 371.140625 L 733.957031 371.140625 L 733.957031 379.386719 L 742.203125 379.386719 L 742.203125 387.632812 L 750.449219 387.632812 L 750.449219 379.386719 L 758.695312 379.386719 L 758.695312 387.632812 L 750.449219 387.632812 L 750.449219 395.878906 L 742.203125 395.878906 L 742.203125 387.632812 L 733.957031 387.632812 L 733.957031 395.878906 L 725.710938 395.878906 L 725.710938 387.632812 L 733.957031 387.632812 L 733.957031 379.386719 L 725.710938 379.386719 L 725.710938 371.140625 L 717.464844 371.140625 L 717.464844 379.386719 L 709.21875 379.386719 L 709.21875 371.140625 L 717.464844 371.140625 L 717.464844 362.894531 L 725.710938 362.894531 L 725.710938 371.140625 L 733.957031 371.140625 L 733.957031 362.894531 L 725.710938 362.894531 L 725.710938 354.648438 L 733.957031 354.648438 L 733.957031 346.402344 L 725.710938 346.402344 L 725.710938 338.15625 L 717.464844 338.15625 L 717.464844 346.402344 L 725.710938 346.402344 L 725.710938 354.648438 L 717.464844 354.648438 L 717.464844 362.894531 L 709.21875 362.894531 L 709.21875 354.648438 L 700.972656 354.648438 L 700.972656 362.894531 L 692.726562 362.894531 L 692.726562 354.648438 L 700.972656 354.648438 L 700.972656 346.402344 L 692.726562 346.402344 L 692.726562 338.15625 L 684.480469 338.15625 L 684.480469 346.402344 L 692.726562 346.402344 L 692.726562 354.648438 L 684.480469 354.648438 L 684.480469 362.894531 L 676.234375 362.894531 L 676.234375 354.648438 L 667.988281 354.648438 L 667.988281 362.894531 L 676.234375 362.894531 L 676.234375 371.140625 L 667.988281 371.140625 L 667.988281 379.386719 L 676.234375 379.386719 L 676.234375 387.632812 L 684.480469 387.632812 L 684.480469 379.386719 L 676.234375 379.386719 L 676.234375 371.140625 L 684.480469 371.140625 L 684.480469 362.894531 L 692.726562 362.894531 L 692.726562 371.140625 L 700.972656 371.140625 L 700.972656 362.894531 L 709.21875 362.894531 L 709.21875 371.140625 L 700.972656 371.140625 L 700.972656 379.386719 L 709.21875 379.386719 L 709.21875 387.632812 L 717.464844 387.632812 L 717.464844 379.386719 L 725.710938 379.386719 L 725.710938 387.632812 L 717.464844 387.632812 L 717.464844 395.878906 L 709.21875 395.878906 L 709.21875 387.632812 L 700.972656 387.632812 L 700.972656 395.878906 L 709.21875 395.878906 L 709.21875 404.125 L 700.972656 404.125 L 700.972656 412.371094 L 709.21875 412.371094 L 709.21875 420.617188 L 717.464844 420.617188 L 717.464844 412.371094 L 725.710938 412.371094 L 725.710938 420.617188 L 717.464844 420.617188 L 717.464844 428.863281 L 709.21875 428.863281 L 709.21875 420.617188 L 700.972656 420.617188 L 700.972656 428.863281 L 692.726562 428.863281 L 692.726562 420.617188 L 700.972656 420.617188 L 700.972656 412.371094 L 692.726562 412.371094 L 692.726562 404.125 L 684.480469 404.125 L 684.480469 412.371094 L 692.726562 412.371094 L 692.726562 420.617188 L 684.480469 420.617188 L 684.480469 428.863281 L 676.234375 428.863281 L 676.234375 420.617188 L 667.988281 420.617188 L 667.988281 428.863281 L 676.234375 428.863281 L 676.234375 437.109375 L 667.988281 437.109375 L 667.988281 445.355469 L 676.234375 445.355469 L 676.234375 453.601562 L 684.480469 453.601562 L 684.480469 445.355469 L 676.234375 445.355469 L 676.234375 437.109375 L 684.480469 437.109375 L 684.480469 428.863281 L 692.726562 428.863281 L 692.726562 437.109375 L 700.972656 437.109375 L 700.972656 428.863281 L 709.21875 428.863281 L 709.21875 437.109375 L 700.972656 437.109375 L 700.972656 445.355469 L 709.21875 445.355469 L 709.21875 453.601562 L 717.464844 453.601562 L 717.464844 445.355469 L 725.710938 445.355469 L 725.710938 453.601562 L 717.464844 453.601562 L 717.464844 461.847656 L 709.21875 461.847656 L 709.21875 453.601562 L 700.972656 453.601562 L 700.972656 461.847656 L 709.21875 461.847656 L 709.21875 470.09375 L 700.972656 470.09375 L 700.972656 478.339844 L 709.21875 478.339844 L 709.21875 486.585938 L 717.464844 486.585938 L 717.464844 478.339844 L 709.21875 478.339844 L 709.21875 470.09375 L 717.464844 470.09375 L 717.464844 461.847656 L 725.710938 461.847656 L 725.710938 470.09375 L 733.957031 470.09375 L 733.957031 461.847656 L 742.203125 461.847656 L 742.203125 470.09375 L 733.957031 470.09375 L 733.957031 478.339844 L 742.203125 478.339844 L 742.203125 486.585938 L 750.449219 486.585938 L 750.449219 478.339844 L 742.203125 478.339844 L 742.203125 470.09375 L 750.449219 470.09375 L 750.449219 461.847656 L 758.695312 461.847656 L 758.695312 470.09375 L 766.941406 470.09375 L 766.941406 461.847656 L 758.695312 461.847656 L 758.695312 453.601562 L 766.941406 453.601562 L 766.941406 445.355469 L 758.695312 445.355469 L 758.695312 437.109375 L 750.449219 437.109375 L 750.449219 445.355469 L 742.203125 445.355469 L 742.203125 437.109375 L 750.449219 437.109375 L 750.449219 428.863281 L 758.695312 428.863281 L 758.695312 437.109375 L 766.941406 437.109375 L 766.941406 428.863281 L 775.1875 428.863281 L 775.1875 437.109375 L 766.941406 437.109375 L 766.941406 445.355469 L 775.1875 445.355469 L 775.1875 453.601562 L 783.433594 453.601562 L 783.433594 445.355469 L 791.679688 445.355469 L 791.679688 453.601562 L 783.433594 453.601562 L 783.433594 461.847656 L 775.1875 461.847656 L 775.1875 453.601562 L 766.941406 453.601562 L 766.941406 461.847656 L 775.1875 461.847656 L 775.1875 470.09375 L 766.941406 470.09375 L 766.941406 478.339844 L 775.1875 478.339844 L 775.1875 486.585938 L 783.433594 486.585938 L 783.433594 478.339844 L 791.679688 478.339844 L 791.679688 486.585938 L 783.433594 486.585938 L 783.433594 494.832031 L 775.1875 494.832031 L 775.1875 486.585938 L 766.941406 486.585938 L 766.941406 494.832031 L 758.695312 494.832031 L 758.695312 486.585938 L 766.941406 486.585938 L 766.941406 478.339844 L 758.695312 478.339844 L 758.695312 470.09375 L 750.449219 470.09375 L 750.449219 478.339844 L 758.695312 478.339844 L 758.695312 486.585938 L 750.449219 486.585938 L 750.449219 494.832031 L 742.203125 494.832031 L 742.203125 486.585938 L 733.957031 486.585938 L 733.957031 494.832031 L 742.203125 494.832031 L 742.203125 503.078125 L 733.957031 503.078125 L 733.957031 511.324219 L 742.203125 511.324219 L 742.203125 519.570312 L 750.449219 519.570312 L 750.449219 511.324219 L 758.695312 511.324219 L 758.695312 519.570312 L 750.449219 519.570312 L 750.449219 527.816406 L 742.203125 527.816406 L 742.203125 519.570312 L 733.957031 519.570312 L 733.957031 527.816406 L 725.710938 527.816406 L 725.710938 519.570312 L 733.957031 519.570312 L 733.957031 511.324219 L 725.710938 511.324219 L 725.710938 503.078125 L 717.464844 503.078125 L 717.464844 511.324219 L 709.21875 511.324219 L 709.21875 503.078125 L 717.464844 503.078125 L 717.464844 494.832031 L 725.710938 494.832031 L 725.710938 503.078125 L 733.957031 503.078125 L 733.957031 494.832031 L 725.710938 494.832031 L 725.710938 486.585938 L 733.957031 486.585938 L 733.957031 478.339844 L 725.710938 478.339844 L 725.710938 470.09375 L 717.464844 470.09375 L 717.464844 478.339844 L 725.710938 478.339844 L 725.710938 486.585938 L 717.464844 486.585938 L 717.464844 494.832031 L 709.21875 494.832031 L 709.21875 486.585938 L 700.972656 486.585938 L 700.972656 494.832031 L 692.726562 494.832031 L 692.726562 486.585938 L 700.972656 486.585938 L 700.972656 478.339844 L 692.726562 478.339844 L 692.726562 470.09375 L 684.480469 470.09375 L 684.480469 478.339844 L 692.726562 478.339844 L 692.726562 486.585938 L 684.480469 486.585938 L 684.480469 494.832031 L 676.234375 494.832031 L 676.234375 486.585938 L 667.988281 486.585938 L 667.988281 494.832031 L 676.234375 494.832031 L 676.234375 503.078125 L 667.988281 503.078125 L 667.988281 511.324219 L 676.234375 511.324219 L 676.234375 519.570312 L 684.480469 519.570312 L 684.480469 511.324219 L 692.726562 511.324219 L 692.726562 519.570312 L 684.480469 519.570312 L 684.480469 527.816406 L 676.234375 527.816406 L 676.234375 519.570312 L 667.988281 519.570312 L 667.988281 527.816406 L 659.742188 527.816406 L 659.742188 519.570312 L 667.988281 519.570312 L 667.988281 511.324219 L 659.742188 511.324219 L 659.742188 503.078125 L 651.496094 503.078125 L 651.496094 511.324219 L 643.25 511.324219 L 643.25 503.078125 L 651.496094 503.078125 L 651.496094 494.832031 L 659.742188 494.832031 L 659.742188 503.078125 L 667.988281 503.078125 L 667.988281 494.832031 L 659.742188 494.832031 L 659.742188 486.585938 L 667.988281 486.585938 L 667.988281 478.339844 L 659.742188 478.339844 L 659.742188 470.09375 L 651.496094 470.09375 L 651.496094 478.339844 L 643.25 478.339844 L 643.25 470.09375 L 651.496094 470.09375 L 651.496094 461.847656 L 659.742188 461.847656 L 659.742188 470.09375 L 667.988281 470.09375 L 667.988281 461.847656 L 676.234375 461.847656 L 676.234375 470.09375 L 667.988281 470.09375 L 667.988281 478.339844 L 676.234375 478.339844 L 676.234375 486.585938 L 684.480469 486.585938 L 684.480469 478.339844 L 676.234375 478.339844 L 676.234375 470.09375 L 684.480469 470.09375 L 684.480469 461.847656 L 692.726562 461.847656 L 692.726562 470.09375 L 700.972656 470.09375 L 700.972656 461.847656 L 692.726562 461.847656 L 692.726562 453.601562 L 700.972656 453.601562 L 700.972656 445.355469 L 692.726562 445.355469 L 692.726562 437.109375 L 684.480469 437.109375 L 684.480469 445.355469 L 692.726562 445.355469 L 692.726562 453.601562 L 684.480469 453.601562 L 684.480469 461.847656 L 676.234375 461.847656 L 676.234375 453.601562 L 667.988281 453.601562 L 667.988281 461.847656 L 659.742188 461.847656 L 659.742188 453.601562 L 667.988281 453.601562 L 667.988281 445.355469 L 659.742188 445.355469 L 659.742188 437.109375 L 651.496094 437.109375 L 651.496094 445.355469 L 643.25 445.355469 L 643.25 437.109375 L 651.496094 437.109375 L 651.496094 428.863281 L 659.742188 428.863281 L 659.742188 437.109375 L 667.988281 437.109375 L 667.988281 428.863281 L 659.742188 428.863281 L 659.742188 420.617188 L 667.988281 420.617188 L 667.988281 412.371094 L 659.742188 412.371094 L 659.742188 404.125 L 651.496094 404.125 L 651.496094 412.371094 L 659.742188 412.371094 L 659.742188 420.617188 L 651.496094 420.617188 L 651.496094 428.863281 L 643.25 428.863281 L 643.25 420.617188 L 635.003906 420.617188 L 635.003906 428.863281 L 626.757812 428.863281 L 626.757812 420.617188 L 635.003906 420.617188 L 635.003906 412.371094 L 626.757812 412.371094 L 626.757812 404.125 L 618.511719 404.125 L 618.511719 412.371094 L 626.757812 412.371094 L 626.757812 420.617188 L 618.511719 420.617188 L 618.511719 428.863281 L 610.265625 428.863281 L 610.265625 420.617188 L 602.019531 420.617188 L 602.019531 428.863281 L 610.265625 428.863281 L 610.265625 437.109375 L 602.019531 437.109375 L 602.019531 445.355469 L 610.265625 445.355469 L 610.265625 453.601562 L 618.511719 453.601562 L 618.511719 445.355469 L 610.265625 445.355469 L 610.265625 437.109375 L 618.511719 437.109375 L 618.511719 428.863281 L 626.757812 428.863281 L 626.757812 437.109375 L 635.003906 437.109375 L 635.003906 428.863281 L 643.25 428.863281 L 643.25 437.109375 L 635.003906 437.109375 L 635.003906 445.355469 L 643.25 445.355469 L 643.25 453.601562 L 651.496094 453.601562 L 651.496094 445.355469 L 659.742188 445.355469 L 659.742188 453.601562 L 651.496094 453.601562 L 651.496094 461.847656 L 643.25 461.847656 L 643.25 453.601562 L 635.003906 453.601562 L 635.003906 461.847656 L 643.25 461.847656 L 643.25 470.09375 L 635.003906 470.09375 L 635.003906 478.339844 L 643.25 478.339844 L 643.25 486.585938 L 651.496094 486.585938 L 651.496094 478.339844 L 659.742188 478.339844 L 659.742188 486.585938 L 651.496094 486.585938 L 651.496094 494.832031 L 643.25 494.832031 L 643.25 486.585938 L 635.003906 486.585938 L 635.003906 494.832031 L 626.757812 494.832031 L 626.757812 486.585938 L 635.003906 486.585938 L 635.003906 478.339844 L 626.757812 478.339844 L 626.757812 470.09375 L 618.511719 470.09375 L 618.511719 478.339844 L 626.757812 478.339844 L 626.757812 486.585938 L 618.511719 486.585938 L 618.511719 494.832031 L 610.265625 494.832031 L 610.265625 486.585938 L 602.019531 486.585938 L 602.019531 494.832031 L 610.265625 494.832031 L 610.265625 503.078125 L 602.019531 503.078125 L 602.019531 511.324219 L 610.265625 511.324219 L 610.265625 519.570312 L 618.511719 519.570312 L 618.511719 511.324219 L 626.757812 511.324219 L 626.757812 519.570312 L 618.511719 519.570312 L 618.511719 527.816406 L 610.265625 527.816406 L 610.265625 519.570312 L 602.019531 519.570312 L 602.019531 527.816406 L 593.773438 527.816406 L 593.773438 519.570312 L 602.019531 519.570312 L 602.019531 511.324219 L 593.773438 511.324219 L 593.773438 503.078125 L 585.527344 503.078125 L 585.527344 511.324219 L 577.28125 511.324219 L 577.28125 503.078125 L 585.527344 503.078125 L 585.527344 494.832031 L 593.773438 494.832031 L 593.773438 503.078125 L 602.019531 503.078125 L 602.019531 494.832031 L 593.773438 494.832031 L 593.773438 486.585938 L 602.019531 486.585938 L 602.019531 478.339844 L 593.773438 478.339844 L 593.773438 470.09375 L 585.527344 470.09375 L 585.527344 478.339844 L 593.773438 478.339844 L 593.773438 486.585938 L 585.527344 486.585938 L 585.527344 494.832031 L 577.28125 494.832031 L 577.28125 486.585938 L 569.035156 486.585938 L 569.035156 494.832031 L 560.789062 494.832031 L 560.789062 486.585938 L 569.035156 486.585938 L 569.035156 478.339844 L 560.789062 478.339844 L 560.789062 470.09375 L 552.542969 470.09375 L 552.542969 478.339844 L 560.789062 478.339844 L 560.789062 486.585938 L 552.542969 486.585938 L 552.542969 494.832031 L 544.296875 494.832031 L 544.296875 486.585938 L 536.050781 486.585938 L 536.050781 494.832031 L 544.296875 494.832031 L 544.296875 503.078125 L 536.050781 503.078125 L 536.050781 511.324219 L 544.296875 511.324219 L 544.296875 519.570312 L 552.542969 519.570312 L 552.542969 511.324219 L 544.296875 511.324219 L 544.296875 503.078125 L 552.542969 503.078125 L 552.542969 494.832031 L 560.789062 494.832031 L 560.789062 503.078125 L 569.035156 503.078125 L 569.035156 494.832031 L 577.28125 494.832031 L 577.28125 503.078125 L 569.035156 503.078125 L 569.035156 511.324219 L 577.28125 511.324219 L 577.28125 519.570312 L 585.527344 519.570312 L 585.527344 511.324219 L 593.773438 511.324219 L 593.773438 519.570312 L 585.527344 519.570312 L 585.527344 527.816406 L 577.28125 527.816406 L 577.28125 519.570312 L 569.035156 519.570312 L 569.035156 527.816406 L 577.28125 527.816406 L 577.28125 536.0625 L 569.035156 536.0625 L 569.035156 544.308594 L 577.28125 544.308594 L 577.28125 552.554688 L 585.527344 552.554688 L 585.527344 544.308594 L 593.773438 544.308594 L 593.773438 552.554688 L 585.527344 552.554688 L 585.527344 560.800781 L 577.28125 560.800781 L 577.28125 552.554688 L 569.035156 552.554688 L 569.035156 560.800781 L 560.789062 560.800781 L 560.789062 552.554688 L 569.035156 552.554688 L 569.035156 544.308594 L 560.789062 544.308594 L 560.789062 536.0625 L 552.542969 536.0625 L 552.542969 544.308594 L 560.789062 544.308594 L 560.789062 552.554688 L 552.542969 552.554688 L 552.542969 560.800781 L 544.296875 560.800781 L 544.296875 552.554688 L 536.050781 552.554688 L 536.050781 560.800781 L 544.296875 560.800781 L 544.296875 569.046875 L 536.050781 569.046875 L 536.050781 577.292969 L 544.296875 577.292969 L 544.296875 585.539062 L 552.542969 585.539062 L 552.542969 577.292969 L 544.296875 577.292969 L 544.296875 569.046875 L 552.542969 569.046875 L 552.542969 560.800781 L 560.789062 560.800781 L 560.789062 569.046875 L 569.035156 569.046875 L 569.035156 560.800781 L 577.28125 560.800781 L 577.28125 569.046875 L 569.035156 569.046875 L 569.035156 577.292969 L 577.28125 577.292969 L 577.28125 585.539062 L 585.527344 585.539062 L 585.527344 577.292969 L 593.773438 577.292969 L 593.773438 585.539062 L 585.527344 585.539062 L 585.527344 593.785156 L 577.28125 593.785156 L 577.28125 585.539062 L 569.035156 585.539062 L 569.035156 593.785156 L 577.28125 593.785156 L 577.28125 602.03125 L 569.035156 602.03125 L 569.035156 610.277344 L 577.28125 610.277344 L 577.28125 618.523438 L 585.527344 618.523438 L 585.527344 610.277344 L 577.28125 610.277344 L 577.28125 602.03125 L 585.527344 602.03125 L 585.527344 593.785156 L 593.773438 593.785156 L 593.773438 602.03125 L 602.019531 602.03125 L 602.019531 593.785156 L 610.265625 593.785156 L 610.265625 602.03125 L 602.019531 602.03125 L 602.019531 610.277344 L 610.265625 610.277344 L 610.265625 618.523438 L 618.511719 618.523438 L 618.511719 610.277344 L 610.265625 610.277344 L 610.265625 602.03125 L 618.511719 602.03125 L 618.511719 593.785156 L 626.757812 593.785156 L 626.757812 602.03125 L 635.003906 602.03125 L 635.003906 593.785156 L 626.757812 593.785156 L 626.757812 585.539062 L 635.003906 585.539062 L 635.003906 577.292969 L 626.757812 577.292969 L 626.757812 569.046875 L 618.511719 569.046875 L 618.511719 577.292969 L 610.265625 577.292969 L 610.265625 569.046875 L 618.511719 569.046875 L 618.511719 560.800781 L 626.757812 560.800781 L 626.757812 569.046875 L 635.003906 569.046875 L 635.003906 560.800781 L 643.25 560.800781 L 643.25 569.046875 L 635.003906 569.046875 L 635.003906 577.292969 L 643.25 577.292969 L 643.25 585.539062 L 651.496094 585.539062 L 651.496094 577.292969 L 659.742188 577.292969 L 659.742188 585.539062 L 651.496094 585.539062 L 651.496094 593.785156 L 643.25 593.785156 L 643.25 585.539062 L 635.003906 585.539062 L 635.003906 593.785156 L 643.25 593.785156 L 643.25 602.03125 L 635.003906 602.03125 L 635.003906 610.277344 L 643.25 610.277344 L 643.25 618.523438 L 651.496094 618.523438 L 651.496094 610.277344 L 659.742188 610.277344 L 659.742188 618.523438 L 651.496094 618.523438 L 651.496094 626.769531 L 643.25 626.769531 L 643.25 618.523438 L 635.003906 618.523438 L 635.003906 626.769531 L 626.757812 626.769531 L 626.757812 618.523438 L 635.003906 618.523438 L 635.003906 610.277344 L 626.757812 610.277344 L 626.757812 602.03125 L 618.511719 602.03125 L 618.511719 610.277344 L 626.757812 610.277344 L 626.757812 618.523438 L 618.511719 618.523438 L 618.511719 626.769531 L 610.265625 626.769531 L 610.265625 618.523438 L 602.019531 618.523438 L 602.019531 626.769531 L 610.265625 626.769531 L 610.265625 635.015625 L 602.019531 635.015625 L 602.019531 643.261719 L 610.265625 643.261719 L 610.265625 651.507812 L 618.511719 651.507812 L 618.511719 643.261719 L 626.757812 643.261719 L 626.757812 651.507812 L 618.511719 651.507812 L 618.511719 659.753906 L 610.265625 659.753906 L 610.265625 651.507812 L 602.019531 651.507812 L 602.019531 659.753906 L 593.773438 659.753906 L 593.773438 651.507812 L 602.019531 651.507812 L 602.019531 643.261719 L 593.773438 643.261719 L 593.773438 635.015625 L 585.527344 635.015625 L 585.527344 643.261719 L 577.28125 643.261719 L 577.28125 635.015625 L 585.527344 635.015625 L 585.527344 626.769531 L 593.773438 626.769531 L 593.773438 635.015625 L 602.019531 635.015625 L 602.019531 626.769531 L 593.773438 626.769531 L 593.773438 618.523438 L 602.019531 618.523438 L 602.019531 610.277344 L 593.773438 610.277344 L 593.773438 602.03125 L 585.527344 602.03125 L 585.527344 610.277344 L 593.773438 610.277344 L 593.773438 618.523438 L 585.527344 618.523438 L 585.527344 626.769531 L 577.28125 626.769531 L 577.28125 618.523438 L 569.035156 618.523438 L 569.035156 626.769531 L 560.789062 626.769531 L 560.789062 618.523438 L 569.035156 618.523438 L 569.035156 610.277344 L 560.789062 610.277344 L 560.789062 602.03125 L 552.542969 602.03125 L 552.542969 610.277344 L 560.789062 610.277344 L 560.789062 618.523438 L 552.542969 618.523438 L 552.542969 626.769531 L 544.296875 626.769531 L 544.296875 618.523438 L 536.050781 618.523438 L 536.050781 626.769531 L 544.296875 626.769531 L 544.296875 635.015625 L 536.050781 635.015625 L 536.050781 643.261719 L 544.296875 643.261719 L 544.296875 651.507812 L 552.542969 651.507812 L 552.542969 643.261719 L 560.789062 643.261719 L 560.789062 651.507812 L 552.542969 651.507812 L 552.542969 659.753906 L 544.296875 659.753906 L 544.296875 651.507812 L 536.050781 651.507812 L 536.050781 659.753906 L 527.804688 659.753906 L 527.804688 651.507812 L 536.050781 651.507812 L 536.050781 643.261719 L 527.804688 643.261719 L 527.804688 635.015625 L 519.558594 635.015625 L 519.558594 643.261719 L 511.3125 643.261719 L 511.3125 635.015625 L 519.558594 635.015625 L 519.558594 626.769531 L 527.804688 626.769531 L 527.804688 635.015625 L 536.050781 635.015625 L 536.050781 626.769531 L 527.804688 626.769531 L 527.804688 618.523438 L 536.050781 618.523438 L 536.050781 610.277344 L 527.804688 610.277344 L 527.804688 602.03125 L 519.558594 602.03125 L 519.558594 610.277344 L 511.3125 610.277344 L 511.3125 602.03125 L 519.558594 602.03125 L 519.558594 593.785156 L 527.804688 593.785156 L 527.804688 602.03125 L 536.050781 602.03125 L 536.050781 593.785156 L 544.296875 593.785156 L 544.296875 602.03125 L 536.050781 602.03125 L 536.050781 610.277344 L 544.296875 610.277344 L 544.296875 618.523438 L 552.542969 618.523438 L 552.542969 610.277344 L 544.296875 610.277344 L 544.296875 602.03125 L 552.542969 602.03125 L 552.542969 593.785156 L 560.789062 593.785156 L 560.789062 602.03125 L 569.035156 602.03125 L 569.035156 593.785156 L 560.789062 593.785156 L 560.789062 585.539062 L 569.035156 585.539062 L 569.035156 577.292969 L 560.789062 577.292969 L 560.789062 569.046875 L 552.542969 569.046875 L 552.542969 577.292969 L 560.789062 577.292969 L 560.789062 585.539062 L 552.542969 585.539062 L 552.542969 593.785156 L 544.296875 593.785156 L 544.296875 585.539062 L 536.050781 585.539062 L 536.050781 593.785156 L 527.804688 593.785156 L 527.804688 585.539062 L 536.050781 585.539062 L 536.050781 577.292969 L 527.804688 577.292969 L 527.804688 569.046875 L 519.558594 569.046875 L 519.558594 577.292969 L 511.3125 577.292969 L 511.3125 569.046875 L 519.558594 569.046875 L 519.558594 560.800781 L 527.804688 560.800781 L 527.804688 569.046875 L 536.050781 569.046875 L 536.050781 560.800781 L 527.804688 560.800781 L 527.804688 552.554688 L 536.050781 552.554688 L 536.050781 544.308594 L 527.804688 544.308594 L 527.804688 536.0625 L 519.558594 536.0625 L 519.558594 544.308594 L 527.804688 544.308594 L 527.804688 552.554688 L 519.558594 552.554688 L 519.558594 560.800781 L 511.3125 560.800781 L 511.3125 552.554688 L 503.066406 552.554688 L 503.066406 560.800781 L 494.820312 560.800781 L 494.820312 552.554688 L 503.066406 552.554688 L 503.066406 544.308594 L 494.820312 544.308594 L 494.820312 536.0625 L 486.574219 536.0625 L 486.574219 544.308594 L 494.820312 544.308594 L 494.820312 552.554688 L 486.574219 552.554688 L 486.574219 560.800781 L 478.328125 560.800781 L 478.328125 552.554688 L 470.082031 552.554688 L 470.082031 560.800781 L 478.328125 560.800781 L 478.328125 569.046875 L 470.082031 569.046875 L 470.082031 577.292969 L 478.328125 577.292969 L 478.328125 585.539062 L 486.574219 585.539062 L 486.574219 577.292969 L 494.820312 577.292969 L 494.820312 585.539062 L 486.574219 585.539062 L 486.574219 593.785156 L 478.328125 593.785156 L 478.328125 585.539062 L 470.082031 585.539062 L 470.082031 593.785156 L 461.835938 593.785156 L 461.835938 585.539062 L 470.082031 585.539062 L 470.082031 577.292969 L 461.835938 577.292969 L 461.835938 569.046875 L 453.589844 569.046875 L 453.589844 577.292969 L 445.34375 577.292969 L 445.34375 569.046875 L 453.589844 569.046875 L 453.589844 560.800781 L 461.835938 560.800781 L 461.835938 569.046875 L 470.082031 569.046875 L 470.082031 560.800781 L 461.835938 560.800781 L 461.835938 552.554688 L 470.082031 552.554688 L 470.082031 544.308594 L 461.835938 544.308594 L 461.835938 536.0625 L 453.589844 536.0625 L 453.589844 544.308594 L 445.34375 544.308594 L 445.34375 536.0625 L 453.589844 536.0625 L 453.589844 527.816406 L 461.835938 527.816406 L 461.835938 536.0625 L 470.082031 536.0625 L 470.082031 527.816406 L 478.328125 527.816406 L 478.328125 536.0625 L 470.082031 536.0625 L 470.082031 544.308594 L 478.328125 544.308594 L 478.328125 552.554688 L 486.574219 552.554688 L 486.574219 544.308594 L 478.328125 544.308594 L 478.328125 536.0625 L 486.574219 536.0625 L 486.574219 527.816406 L 494.820312 527.816406 L 494.820312 536.0625 L 503.066406 536.0625 L 503.066406 527.816406 L 494.820312 527.816406 L 494.820312 519.570312 L 503.066406 519.570312 L 503.066406 511.324219 L 494.820312 511.324219 L 494.820312 503.078125 L 486.574219 503.078125 L 486.574219 511.324219 L 478.328125 511.324219 L 478.328125 503.078125 L 486.574219 503.078125 L 486.574219 494.832031 L 494.820312 494.832031 L 494.820312 503.078125 L 503.066406 503.078125 L 503.066406 494.832031 L 511.3125 494.832031 L 511.3125 503.078125 L 503.066406 503.078125 L 503.066406 511.324219 L 511.3125 511.324219 L 511.3125 519.570312 L 519.558594 519.570312 L 519.558594 511.324219 L 527.804688 511.324219 L 527.804688 519.570312 L 519.558594 519.570312 L 519.558594 527.816406 L 511.3125 527.816406 L 511.3125 519.570312 L 503.066406 519.570312 L 503.066406 527.816406 L 511.3125 527.816406 L 511.3125 536.0625 L 503.066406 536.0625 L 503.066406 544.308594 L 511.3125 544.308594 L 511.3125 552.554688 L 519.558594 552.554688 L 519.558594 544.308594 L 511.3125 544.308594 L 511.3125 536.0625 L 519.558594 536.0625 L 519.558594 527.816406 L 527.804688 527.816406 L 527.804688 536.0625 L 536.050781 536.0625 L 536.050781 527.816406 L 544.296875 527.816406 L 544.296875 536.0625 L 536.050781 536.0625 L 536.050781 544.308594 L 544.296875 544.308594 L 544.296875 552.554688 L 552.542969 552.554688 L 552.542969 544.308594 L 544.296875 544.308594 L 544.296875 536.0625 L 552.542969 536.0625 L 552.542969 527.816406 L 560.789062 527.816406 L 560.789062 536.0625 L 569.035156 536.0625 L 569.035156 527.816406 L 560.789062 527.816406 L 560.789062 519.570312 L 569.035156 519.570312 L 569.035156 511.324219 L 560.789062 511.324219 L 560.789062 503.078125 L 552.542969 503.078125 L 552.542969 511.324219 L 560.789062 511.324219 L 560.789062 519.570312 L 552.542969 519.570312 L 552.542969 527.816406 L 544.296875 527.816406 L 544.296875 519.570312 L 536.050781 519.570312 L 536.050781 527.816406 L 527.804688 527.816406 L 527.804688 519.570312 L 536.050781 519.570312 L 536.050781 511.324219 L 527.804688 511.324219 L 527.804688 503.078125 L 519.558594 503.078125 L 519.558594 511.324219 L 511.3125 511.324219 L 511.3125 503.078125 L 519.558594 503.078125 L 519.558594 494.832031 L 527.804688 494.832031 L 527.804688 503.078125 L 536.050781 503.078125 L 536.050781 494.832031 L 527.804688 494.832031 L 527.804688 486.585938 L 536.050781 486.585938 L 536.050781 478.339844 L 527.804688 478.339844 L 527.804688 470.09375 L 519.558594 470.09375 L 519.558594 478.339844 L 511.3125 478.339844 L 511.3125 470.09375 L 519.558594 470.09375 L 519.558594 461.847656 L 527.804688 461.847656 L 527.804688 470.09375 L 536.050781 470.09375 L 536.050781 461.847656 L 544.296875 461.847656 L 544.296875 470.09375 L 536.050781 470.09375 L 536.050781 478.339844 L 544.296875 478.339844 L 544.296875 486.585938 L 552.542969 486.585938 L 552.542969 478.339844 L 544.296875 478.339844 L 544.296875 470.09375 L 552.542969 470.09375 L 552.542969 461.847656 L 560.789062 461.847656 L 560.789062 470.09375 L 569.035156 470.09375 L 569.035156 461.847656 L 560.789062 461.847656 L 560.789062 453.601562 L 569.035156 453.601562 L 569.035156 445.355469 L 560.789062 445.355469 L 560.789062 437.109375 L 552.542969 437.109375 L 552.542969 445.355469 L 560.789062 445.355469 L 560.789062 453.601562 L 552.542969 453.601562 L 552.542969 461.847656 L 544.296875 461.847656 L 544.296875 453.601562 L 536.050781 453.601562 L 536.050781 461.847656 L 527.804688 461.847656 L 527.804688 453.601562 L 536.050781 453.601562 L 536.050781 445.355469 L 527.804688 445.355469 L 527.804688 437.109375 L 519.558594 437.109375 L 519.558594 445.355469 L 511.3125 445.355469 L 511.3125 437.109375 L 519.558594 437.109375 L 519.558594 428.863281 L 527.804688 428.863281 L 527.804688 437.109375 L 536.050781 437.109375 L 536.050781 428.863281 L 527.804688 428.863281 L 527.804688 420.617188 L 536.050781 420.617188 L 536.050781 412.371094 L 527.804688 412.371094 L 527.804688 404.125 L 519.558594 404.125 L 519.558594 412.371094 L 527.804688 412.371094 L 527.804688 420.617188 L 519.558594 420.617188 L 519.558594 428.863281 L 511.3125 428.863281 L 511.3125 420.617188 L 503.066406 420.617188 L 503.066406 428.863281 L 494.820312 428.863281 L 494.820312 420.617188 L 503.066406 420.617188 L 503.066406 412.371094 L 494.820312 412.371094 L 494.820312 404.125 L 486.574219 404.125 L 486.574219 412.371094 L 494.820312 412.371094 L 494.820312 420.617188 L 486.574219 420.617188 L 486.574219 428.863281 L 478.328125 428.863281 L 478.328125 420.617188 L 470.082031 420.617188 L 470.082031 428.863281 L 478.328125 428.863281 L 478.328125 437.109375 L 470.082031 437.109375 L 470.082031 445.355469 L 478.328125 445.355469 L 478.328125 453.601562 L 486.574219 453.601562 L 486.574219 445.355469 L 478.328125 445.355469 L 478.328125 437.109375 L 486.574219 437.109375 L 486.574219 428.863281 L 494.820312 428.863281 L 494.820312 437.109375 L 503.066406 437.109375 L 503.066406 428.863281 L 511.3125 428.863281 L 511.3125 437.109375 L 503.066406 437.109375 L 503.066406 445.355469 L 511.3125 445.355469 L 511.3125 453.601562 L 519.558594 453.601562 L 519.558594 445.355469 L 527.804688 445.355469 L 527.804688 453.601562 L 519.558594 453.601562 L 519.558594 461.847656 L 511.3125 461.847656 L 511.3125 453.601562 L 503.066406 453.601562 L 503.066406 461.847656 L 511.3125 461.847656 L 511.3125 470.09375 L 503.066406 470.09375 L 503.066406 478.339844 L 511.3125 478.339844 L 511.3125 486.585938 L 519.558594 486.585938 L 519.558594 478.339844 L 527.804688 478.339844 L 527.804688 486.585938 L 519.558594 486.585938 L 519.558594 494.832031 L 511.3125 494.832031 L 511.3125 486.585938 L 503.066406 486.585938 L 503.066406 494.832031 L 494.820312 494.832031 L 494.820312 486.585938 L 503.066406 486.585938 L 503.066406 478.339844 L 494.820312 478.339844 L 494.820312 470.09375 L 486.574219 470.09375 L 486.574219 478.339844 L 494.820312 478.339844 L 494.820312 486.585938 L 486.574219 486.585938 L 486.574219 494.832031 L 478.328125 494.832031 L 478.328125 486.585938 L 470.082031 486.585938 L 470.082031 494.832031 L 478.328125 494.832031 L 478.328125 503.078125 L 470.082031 503.078125 L 470.082031 511.324219 L 478.328125 511.324219 L 478.328125 519.570312 L 486.574219 519.570312 L 486.574219 511.324219 L 494.820312 511.324219 L 494.820312 519.570312 L 486.574219 519.570312 L 486.574219 527.816406 L 478.328125 527.816406 L 478.328125 519.570312 L 470.082031 519.570312 L 470.082031 527.816406 L 461.835938 527.816406 L 461.835938 519.570312 L 470.082031 519.570312 L 470.082031 511.324219 L 461.835938 511.324219 L 461.835938 503.078125 L 453.589844 503.078125 L 453.589844 511.324219 L 445.34375 511.324219 L 445.34375 503.078125 L 453.589844 503.078125 L 453.589844 494.832031 L 461.835938 494.832031 L 461.835938 503.078125 L 470.082031 503.078125 L 470.082031 494.832031 L 461.835938 494.832031 L 461.835938 486.585938 L 470.082031 486.585938 L 470.082031 478.339844 L 461.835938 478.339844 L 461.835938 470.09375 L 453.589844 470.09375 L 453.589844 478.339844 L 461.835938 478.339844 L 461.835938 486.585938 L 453.589844 486.585938 L 453.589844 494.832031 L 445.34375 494.832031 L 445.34375 486.585938 L 437.097656 486.585938 L 437.097656 494.832031 L 428.851562 494.832031 L 428.851562 486.585938 L 437.097656 486.585938 L 437.097656 478.339844 L 428.851562 478.339844 L 428.851562 470.09375 L 420.605469 470.09375 L 420.605469 478.339844 L 428.851562 478.339844 L 428.851562 486.585938 L 420.605469 486.585938 L 420.605469 494.832031 L 412.359375 494.832031 L 412.359375 486.585938 L 404.113281 486.585938 L 404.113281 494.832031 L 412.359375 494.832031 L 412.359375 503.078125 L 404.113281 503.078125 L 404.113281 511.324219 L 412.359375 511.324219 L 412.359375 519.570312 L 420.605469 519.570312 L 420.605469 511.324219 L 428.851562 511.324219 L 428.851562 519.570312 L 420.605469 519.570312 L 420.605469 527.816406 L 412.359375 527.816406 L 412.359375 519.570312 L 404.113281 519.570312 L 404.113281 527.816406 L 395.867188 527.816406 L 395.867188 519.570312 L 404.113281 519.570312 L 404.113281 511.324219 L 395.867188 511.324219 L 395.867188 503.078125 L 387.621094 503.078125 L 387.621094 511.324219 L 379.375 511.324219 L 379.375 503.078125 L 387.621094 503.078125 L 387.621094 494.832031 L 395.867188 494.832031 L 395.867188 503.078125 L 404.113281 503.078125 L 404.113281 494.832031 L 395.867188 494.832031 L 395.867188 486.585938 L 404.113281 486.585938 L 404.113281 478.339844 L 395.867188 478.339844 L 395.867188 470.09375 L 387.621094 470.09375 L 387.621094 478.339844 L 379.375 478.339844 L 379.375 470.09375 L 387.621094 470.09375 L 387.621094 461.847656 L 395.867188 461.847656 L 395.867188 470.09375 L 404.113281 470.09375 L 404.113281 461.847656 L 412.359375 461.847656 L 412.359375 470.09375 L 404.113281 470.09375 L 404.113281 478.339844 L 412.359375 478.339844 L 412.359375 486.585938 L 420.605469 486.585938 L 420.605469 478.339844 L 412.359375 478.339844 L 412.359375 470.09375 L 420.605469 470.09375 L 420.605469 461.847656 L 428.851562 461.847656 L 428.851562 470.09375 L 437.097656 470.09375 L 437.097656 461.847656 L 428.851562 461.847656 L 428.851562 453.601562 L 437.097656 453.601562 L 437.097656 445.355469 L 428.851562 445.355469 L 428.851562 437.109375 L 420.605469 437.109375 L 420.605469 445.355469 L 428.851562 445.355469 L 428.851562 453.601562 L 420.605469 453.601562 L 420.605469 461.847656 L 412.359375 461.847656 L 412.359375 453.601562 L 404.113281 453.601562 L 404.113281 461.847656 L 395.867188 461.847656 L 395.867188 453.601562 L 404.113281 453.601562 L 404.113281 445.355469 L 395.867188 445.355469 L 395.867188 437.109375 L 387.621094 437.109375 L 387.621094 445.355469 L 379.375 445.355469 L 379.375 437.109375 L 387.621094 437.109375 L 387.621094 428.863281 L 395.867188 428.863281 L 395.867188 437.109375 L 404.113281 437.109375 L 404.113281 428.863281 L 395.867188 428.863281 L 395.867188 420.617188 L 404.113281 420.617188 L 404.113281 412.371094 L 395.867188 412.371094 L 395.867188 404.125 L 387.621094 404.125 L 387.621094 412.371094 L 395.867188 412.371094 L 395.867188 420.617188 L 387.621094 420.617188 L 387.621094 428.863281 L 379.375 428.863281 L 379.375 420.617188 L 371.128906 420.617188 L 371.128906 428.863281 L 362.882812 428.863281 L 362.882812 420.617188 L 371.128906 420.617188 L 371.128906 412.371094 L 362.882812 412.371094 L 362.882812 404.125 L 354.636719 404.125 L 354.636719 412.371094 L 362.882812 412.371094 L 362.882812 420.617188 L 354.636719 420.617188 L 354.636719 428.863281 L 346.390625 428.863281 L 346.390625 420.617188 L 338.144531 420.617188 L 338.144531 428.863281 L 346.390625 428.863281 L 346.390625 437.109375 L 338.144531 437.109375 L 338.144531 445.355469 L 346.390625 445.355469 L 346.390625 453.601562 L 354.636719 453.601562 L 354.636719 445.355469 L 346.390625 445.355469 L 346.390625 437.109375 L 354.636719 437.109375 L 354.636719 428.863281 L 362.882812 428.863281 L 362.882812 437.109375 L 371.128906 437.109375 L 371.128906 428.863281 L 379.375 428.863281 L 379.375 437.109375 L 371.128906 437.109375 L 371.128906 445.355469 L 379.375 445.355469 L 379.375 453.601562 L 387.621094 453.601562 L 387.621094 445.355469 L 395.867188 445.355469 L 395.867188 453.601562 L 387.621094 453.601562 L 387.621094 461.847656 L 379.375 461.847656 L 379.375 453.601562 L 371.128906 453.601562 L 371.128906 461.847656 L 379.375 461.847656 L 379.375 470.09375 L 371.128906 470.09375 L 371.128906 478.339844 L 379.375 478.339844 L 379.375 486.585938 L 387.621094 486.585938 L 387.621094 478.339844 L 395.867188 478.339844 L 395.867188 486.585938 L 387.621094 486.585938 L 387.621094 494.832031 L 379.375 494.832031 L 379.375 486.585938 L 371.128906 486.585938 L 371.128906 494.832031 L 362.882812 494.832031 L 362.882812 486.585938 L 371.128906 486.585938 L 371.128906 478.339844 L 362.882812 478.339844 L 362.882812 470.09375 L 354.636719 470.09375 L 354.636719 478.339844 L 362.882812 478.339844 L 362.882812 486.585938 L 354.636719 486.585938 L 354.636719 494.832031 L 346.390625 494.832031 L 346.390625 486.585938 L 338.144531 486.585938 L 338.144531 494.832031 L 346.390625 494.832031 L 346.390625 503.078125 L 338.144531 503.078125 L 338.144531 511.324219 L 346.390625 511.324219 L 346.390625 519.570312 L 354.636719 519.570312 L 354.636719 511.324219 L 362.882812 511.324219 L 362.882812 519.570312 L 354.636719 519.570312 L 354.636719 527.816406 L 346.390625 527.816406 L 346.390625 519.570312 L 338.144531 519.570312 L 338.144531 527.816406 L 329.898438 527.816406 L 329.898438 519.570312 L 338.144531 519.570312 L 338.144531 511.324219 L 329.898438 511.324219 L 329.898438 503.078125 L 321.652344 503.078125 L 321.652344 511.324219 L 313.40625 511.324219 L 313.40625 503.078125 L 321.652344 503.078125 L 321.652344 494.832031 L 329.898438 494.832031 L 329.898438 503.078125 L 338.144531 503.078125 L 338.144531 494.832031 L 329.898438 494.832031 L 329.898438 486.585938 L 338.144531 486.585938 L 338.144531 478.339844 L 329.898438 478.339844 L 329.898438 470.09375 L 321.652344 470.09375 L 321.652344 478.339844 L 329.898438 478.339844 L 329.898438 486.585938 L 321.652344 486.585938 L 321.652344 494.832031 L 313.40625 494.832031 L 313.40625 486.585938 L 305.160156 486.585938 L 305.160156 494.832031 L 296.914062 494.832031 L 296.914062 486.585938 L 305.160156 486.585938 L 305.160156 478.339844 L 296.914062 478.339844 L 296.914062 470.09375 L 288.667969 470.09375 L 288.667969 478.339844 L 296.914062 478.339844 L 296.914062 486.585938 L 288.667969 486.585938 L 288.667969 494.832031 L 280.421875 494.832031 L 280.421875 486.585938 L 272.175781 486.585938 L 272.175781 494.832031 L 280.421875 494.832031 L 280.421875 503.078125 L 272.175781 503.078125 L 272.175781 511.324219 L 280.421875 511.324219 L 280.421875 519.570312 L 288.667969 519.570312 L 288.667969 511.324219 L 280.421875 511.324219 L 280.421875 503.078125 L 288.667969 503.078125 L 288.667969 494.832031 L 296.914062 494.832031 L 296.914062 503.078125 L 305.160156 503.078125 L 305.160156 494.832031 L 313.40625 494.832031 L 313.40625 503.078125 L 305.160156 503.078125 L 305.160156 511.324219 L 313.40625 511.324219 L 313.40625 519.570312 L 321.652344 519.570312 L 321.652344 511.324219 L 329.898438 511.324219 L 329.898438 519.570312 L 321.652344 519.570312 L 321.652344 527.816406 L 313.40625 527.816406 L 313.40625 519.570312 L 305.160156 519.570312 L 305.160156 527.816406 L 313.40625 527.816406 L 313.40625 536.0625 L 305.160156 536.0625 L 305.160156 544.308594 L 313.40625 544.308594 L 313.40625 552.554688 L 321.652344 552.554688 L 321.652344 544.308594 L 329.898438 544.308594 L 329.898438 552.554688 L 321.652344 552.554688 L 321.652344 560.800781 L 313.40625 560.800781 L 313.40625 552.554688 L 305.160156 552.554688 L 305.160156 560.800781 L 296.914062 560.800781 L 296.914062 552.554688 L 305.160156 552.554688 L 305.160156 544.308594 L 296.914062 544.308594 L 296.914062 536.0625 L 288.667969 536.0625 L 288.667969 544.308594 L 296.914062 544.308594 L 296.914062 552.554688 L 288.667969 552.554688 L 288.667969 560.800781 L 280.421875 560.800781 L 280.421875 552.554688 L 272.175781 552.554688 L 272.175781 560.800781 L 280.421875 560.800781 L 280.421875 569.046875 L 272.175781 569.046875 L 272.175781 577.292969 L 280.421875 577.292969 L 280.421875 585.539062 L 288.667969 585.539062 L 288.667969 577.292969 L 280.421875 577.292969 L 280.421875 569.046875 L 288.667969 569.046875 L 288.667969 560.800781 L 296.914062 560.800781 L 296.914062 569.046875 L 305.160156 569.046875 L 305.160156 560.800781 L 313.40625 560.800781 L 313.40625 569.046875 L 305.160156 569.046875 L 305.160156 577.292969 L 313.40625 577.292969 L 313.40625 585.539062 L 321.652344 585.539062 L 321.652344 577.292969 L 329.898438 577.292969 L 329.898438 585.539062 L 321.652344 585.539062 L 321.652344 593.785156 L 313.40625 593.785156 L 313.40625 585.539062 L 305.160156 585.539062 L 305.160156 593.785156 L 313.40625 593.785156 L 313.40625 602.03125 L 305.160156 602.03125 L 305.160156 610.277344 L 313.40625 610.277344 L 313.40625 618.523438 L 321.652344 618.523438 L 321.652344 610.277344 L 313.40625 610.277344 L 313.40625 602.03125 L 321.652344 602.03125 L 321.652344 593.785156 L 329.898438 593.785156 L 329.898438 602.03125 L 338.144531 602.03125 L 338.144531 593.785156 L 346.390625 593.785156 L 346.390625 602.03125 L 338.144531 602.03125 L 338.144531 610.277344 L 346.390625 610.277344 L 346.390625 618.523438 L 354.636719 618.523438 L 354.636719 610.277344 L 346.390625 610.277344 L 346.390625 602.03125 L 354.636719 602.03125 L 354.636719 593.785156 L 362.882812 593.785156 L 362.882812 602.03125 L 371.128906 602.03125 L 371.128906 593.785156 L 362.882812 593.785156 L 362.882812 585.539062 L 371.128906 585.539062 L 371.128906 577.292969 L 362.882812 577.292969 L 362.882812 569.046875 L 354.636719 569.046875 L 354.636719 577.292969 L 346.390625 577.292969 L 346.390625 569.046875 L 354.636719 569.046875 L 354.636719 560.800781 L 362.882812 560.800781 L 362.882812 569.046875 L 371.128906 569.046875 L 371.128906 560.800781 L 379.375 560.800781 L 379.375 569.046875 L 371.128906 569.046875 L 371.128906 577.292969 L 379.375 577.292969 L 379.375 585.539062 L 387.621094 585.539062 L 387.621094 577.292969 L 395.867188 577.292969 L 395.867188 585.539062 L 387.621094 585.539062 L 387.621094 593.785156 L 379.375 593.785156 L 379.375 585.539062 L 371.128906 585.539062 L 371.128906 593.785156 L 379.375 593.785156 L 379.375 602.03125 L 371.128906 602.03125 L 371.128906 610.277344 L 379.375 610.277344 L 379.375 618.523438 L 387.621094 618.523438 L 387.621094 610.277344 L 395.867188 610.277344 L 395.867188 618.523438 L 387.621094 618.523438 L 387.621094 626.769531 L 379.375 626.769531 L 379.375 618.523438 L 371.128906 618.523438 L 371.128906 626.769531 L 362.882812 626.769531 L 362.882812 618.523438 L 371.128906 618.523438 L 371.128906 610.277344 L 362.882812 610.277344 L 362.882812 602.03125 L 354.636719 602.03125 L 354.636719 610.277344 L 362.882812 610.277344 L 362.882812 618.523438 L 354.636719 618.523438 L 354.636719 626.769531 L 346.390625 626.769531 L 346.390625 618.523438 L 338.144531 618.523438 L 338.144531 626.769531 L 346.390625 626.769531 L 346.390625 635.015625 L 338.144531 635.015625 L 338.144531 643.261719 L 346.390625 643.261719 L 346.390625 651.507812 L 354.636719 651.507812 L 354.636719 643.261719 L 362.882812 643.261719 L 362.882812 651.507812 L 354.636719 651.507812 L 354.636719 659.753906 L 346.390625 659.753906 L 346.390625 651.507812 L 338.144531 651.507812 L 338.144531 659.753906 L 329.898438 659.753906 L 329.898438 651.507812 L 338.144531 651.507812 L 338.144531 643.261719 L 329.898438 643.261719 L 329.898438 635.015625 L 321.652344 635.015625 L 321.652344 643.261719 L 313.40625 643.261719 L 313.40625 635.015625 L 321.652344 635.015625 L 321.652344 626.769531 L 329.898438 626.769531 L 329.898438 635.015625 L 338.144531 635.015625 L 338.144531 626.769531 L 329.898438 626.769531 L 329.898438 618.523438 L 338.144531 618.523438 L 338.144531 610.277344 L 329.898438 610.277344 L 329.898438 602.03125 L 321.652344 602.03125 L 321.652344 610.277344 L 329.898438 610.277344 L 329.898438 618.523438 L 321.652344 618.523438 L 321.652344 626.769531 L 313.40625 626.769531 L 313.40625 618.523438 L 305.160156 618.523438 L 305.160156 626.769531 L 296.914062 626.769531 L 296.914062 618.523438 L 305.160156 618.523438 L 305.160156 610.277344 L 296.914062 610.277344 L 296.914062 602.03125 L 288.667969 602.03125 L 288.667969 610.277344 L 296.914062 610.277344 L 296.914062 618.523438 L 288.667969 618.523438 L 288.667969 626.769531 L 280.421875 626.769531 L 280.421875 618.523438 L 272.175781 618.523438 L 272.175781 626.769531 L 280.421875 626.769531 L 280.421875 635.015625 L 272.175781 635.015625 L 272.175781 643.261719 L 280.421875 643.261719 L 280.421875 651.507812 L 288.667969 651.507812 L 288.667969 643.261719 L 296.914062 643.261719 L 296.914062 651.507812 L 288.667969 651.507812 L 288.667969 659.753906 L 280.421875 659.753906 L 280.421875 651.507812 L 272.175781 651.507812 L 272.175781 659.753906 L 263.929688 659.753906 L 263.929688 651.507812 L 272.175781 651.507812 L 272.175781 643.261719 L 263.929688 643.261719 L 263.929688 635.015625 L 255.683594 635.015625 L 255.683594 643.261719 L 247.4375 643.261719 L 247.4375 635.015625 L 255.683594 635.015625 L 255.683594 626.769531 L 263.929688 626.769531 L 263.929688 635.015625 L 272.175781 635.015625 L 272.175781 626.769531 L 263.929688 626.769531 L 263.929688 618.523438 L 272.175781 618.523438 L 272.175781 610.277344 L 263.929688 610.277344 L 263.929688 602.03125 L 255.683594 602.03125 L 255.683594 610.277344 L 247.4375 610.277344 L 247.4375 602.03125 L 255.683594 602.03125 L 255.683594 593.785156 L 263.929688 593.785156 L 263.929688 602.03125 L 272.175781 602.03125 L 272.175781 593.785156 L 280.421875 593.785156 L 280.421875 602.03125 L 272.175781 602.03125 L 272.175781 610.277344 L 280.421875 610.277344 L 280.421875 618.523438 L 288.667969 618.523438 L 288.667969 610.277344 L 280.421875 610.277344 L 280.421875 602.03125 L 288.667969 602.03125 L 288.667969 593.785156 L 296.914062 593.785156 L 296.914062 602.03125 L 305.160156 602.03125 L 305.160156 593.785156 L 296.914062 593.785156 L 296.914062 585.539062 L 305.160156 585.539062 L 305.160156 577.292969 L 296.914062 577.292969 L 296.914062 569.046875 L 288.667969 569.046875 L 288.667969 577.292969 L 296.914062 577.292969 L 296.914062 585.539062 L 288.667969 585.539062 L 288.667969 593.785156 L 280.421875 593.785156 L 280.421875 585.539062 L 272.175781 585.539062 L 272.175781 593.785156 L 263.929688 593.785156 L 263.929688 585.539062 L 272.175781 585.539062 L 272.175781 577.292969 L 263.929688 577.292969 L 263.929688 569.046875 L 255.683594 569.046875 L 255.683594 577.292969 L 247.4375 577.292969 L 247.4375 569.046875 L 255.683594 569.046875 L 255.683594 560.800781 L 263.929688 560.800781 L 263.929688 569.046875 L 272.175781 569.046875 L 272.175781 560.800781 L 263.929688 560.800781 L 263.929688 552.554688 L 272.175781 552.554688 L 272.175781 544.308594 L 263.929688 544.308594 L 263.929688 536.0625 L 255.683594 536.0625 L 255.683594 544.308594 L 263.929688 544.308594 L 263.929688 552.554688 L 255.683594 552.554688 L 255.683594 560.800781 L 247.4375 560.800781 L 247.4375 552.554688 L 239.191406 552.554688 L 239.191406 560.800781 L 230.945312 560.800781 L 230.945312 552.554688 L 239.191406 552.554688 L 239.191406 544.308594 L 230.945312 544.308594 L 230.945312 536.0625 L 222.699219 536.0625 L 222.699219 544.308594 L 230.945312 544.308594 L 230.945312 552.554688 L 222.699219 552.554688 L 222.699219 560.800781 L 214.453125 560.800781 L 214.453125 552.554688 L 206.207031 552.554688 L 206.207031 560.800781 L 214.453125 560.800781 L 214.453125 569.046875 L 206.207031 569.046875 L 206.207031 577.292969 L 214.453125 577.292969 L 214.453125 585.539062 L 222.699219 585.539062 L 222.699219 577.292969 L 230.945312 577.292969 L 230.945312 585.539062 L 222.699219 585.539062 L 222.699219 593.785156 L 214.453125 593.785156 L 214.453125 585.539062 L 206.207031 585.539062 L 206.207031 593.785156 L 197.960938 593.785156 L 197.960938 585.539062 L 206.207031 585.539062 L 206.207031 577.292969 L 197.960938 577.292969 L 197.960938 569.046875 L 189.714844 569.046875 L 189.714844 577.292969 L 181.46875 577.292969 L 181.46875 569.046875 L 189.714844 569.046875 L 189.714844 560.800781 L 197.960938 560.800781 L 197.960938 569.046875 L 206.207031 569.046875 L 206.207031 560.800781 L 197.960938 560.800781 L 197.960938 552.554688 L 206.207031 552.554688 L 206.207031 544.308594 L 197.960938 544.308594 L 197.960938 536.0625 L 189.714844 536.0625 L 189.714844 544.308594 L 181.46875 544.308594 L 181.46875 536.0625 L 189.714844 536.0625 L 189.714844 527.816406 L 197.960938 527.816406 L 197.960938 536.0625 L 206.207031 536.0625 L 206.207031 527.816406 L 214.453125 527.816406 L 214.453125 536.0625 L 206.207031 536.0625 L 206.207031 544.308594 L 214.453125 544.308594 L 214.453125 552.554688 L 222.699219 552.554688 L 222.699219 544.308594 L 214.453125 544.308594 L 214.453125 536.0625 L 222.699219 536.0625 L 222.699219 527.816406 L 230.945312 527.816406 L 230.945312 536.0625 L 239.191406 536.0625 L 239.191406 527.816406 L 230.945312 527.816406 L 230.945312 519.570312 L 239.191406 519.570312 L 239.191406 511.324219 L 230.945312 511.324219 L 230.945312 503.078125 L 222.699219 503.078125 L 222.699219 511.324219 L 214.453125 511.324219 L 214.453125 503.078125 L 222.699219 503.078125 L 222.699219 494.832031 L 230.945312 494.832031 L 230.945312 503.078125 L 239.191406 503.078125 L 239.191406 494.832031 L 247.4375 494.832031 L 247.4375 503.078125 L 239.191406 503.078125 L 239.191406 511.324219 L 247.4375 511.324219 L 247.4375 519.570312 L 255.683594 519.570312 L 255.683594 511.324219 L 263.929688 511.324219 L 263.929688 519.570312 L 255.683594 519.570312 L 255.683594 527.816406 L 247.4375 527.816406 L 247.4375 519.570312 L 239.191406 519.570312 L 239.191406 527.816406 L 247.4375 527.816406 L 247.4375 536.0625 L 239.191406 536.0625 L 239.191406 544.308594 L 247.4375 544.308594 L 247.4375 552.554688 L 255.683594 552.554688 L 255.683594 544.308594 L 247.4375 544.308594 L 247.4375 536.0625 L 255.683594 536.0625 L 255.683594 527.816406 L 263.929688 527.816406 L 263.929688 536.0625 L 272.175781 536.0625 L 272.175781 527.816406 L 280.421875 527.816406 L 280.421875 536.0625 L 272.175781 536.0625 L 272.175781 544.308594 L 280.421875 544.308594 L 280.421875 552.554688 L 288.667969 552.554688 L 288.667969 544.308594 L 280.421875 544.308594 L 280.421875 536.0625 L 288.667969 536.0625 L 288.667969 527.816406 L 296.914062 527.816406 L 296.914062 536.0625 L 305.160156 536.0625 L 305.160156 527.816406 L 296.914062 527.816406 L 296.914062 519.570312 L 305.160156 519.570312 L 305.160156 511.324219 L 296.914062 511.324219 L 296.914062 503.078125 L 288.667969 503.078125 L 288.667969 511.324219 L 296.914062 511.324219 L 296.914062 519.570312 L 288.667969 519.570312 L 288.667969 527.816406 L 280.421875 527.816406 L 280.421875 519.570312 L 272.175781 519.570312 L 272.175781 527.816406 L 263.929688 527.816406 L 263.929688 519.570312 L 272.175781 519.570312 L 272.175781 511.324219 L 263.929688 511.324219 L 263.929688 503.078125 L 255.683594 503.078125 L 255.683594 511.324219 L 247.4375 511.324219 L 247.4375 503.078125 L 255.683594 503.078125 L 255.683594 494.832031 L 263.929688 494.832031 L 263.929688 503.078125 L 272.175781 503.078125 L 272.175781 494.832031 L 263.929688 494.832031 L 263.929688 486.585938 L 272.175781 486.585938 L 272.175781 478.339844 L 263.929688 478.339844 L 263.929688 470.09375 L 255.683594 470.09375 L 255.683594 478.339844 L 247.4375 478.339844 L 247.4375 470.09375 L 255.683594 470.09375 L 255.683594 461.847656 L 263.929688 461.847656 L 263.929688 470.09375 L 272.175781 470.09375 L 272.175781 461.847656 L 280.421875 461.847656 L 280.421875 470.09375 L 272.175781 470.09375 L 272.175781 478.339844 L 280.421875 478.339844 L 280.421875 486.585938 L 288.667969 486.585938 L 288.667969 478.339844 L 280.421875 478.339844 L 280.421875 470.09375 L 288.667969 470.09375 L 288.667969 461.847656 L 296.914062 461.847656 L 296.914062 470.09375 L 305.160156 470.09375 L 305.160156 461.847656 L 296.914062 461.847656 L 296.914062 453.601562 L 305.160156 453.601562 L 305.160156 445.355469 L 296.914062 445.355469 L 296.914062 437.109375 L 288.667969 437.109375 L 288.667969 445.355469 L 296.914062 445.355469 L 296.914062 453.601562 L 288.667969 453.601562 L 288.667969 461.847656 L 280.421875 461.847656 L 280.421875 453.601562 L 272.175781 453.601562 L 272.175781 461.847656 L 263.929688 461.847656 L 263.929688 453.601562 L 272.175781 453.601562 L 272.175781 445.355469 L 263.929688 445.355469 L 263.929688 437.109375 L 255.683594 437.109375 L 255.683594 445.355469 L 247.4375 445.355469 L 247.4375 437.109375 L 255.683594 437.109375 L 255.683594 428.863281 L 263.929688 428.863281 L 263.929688 437.109375 L 272.175781 437.109375 L 272.175781 428.863281 L 263.929688 428.863281 L 263.929688 420.617188 L 272.175781 420.617188 L 272.175781 412.371094 L 263.929688 412.371094 L 263.929688 404.125 L 255.683594 404.125 L 255.683594 412.371094 L 263.929688 412.371094 L 263.929688 420.617188 L 255.683594 420.617188 L 255.683594 428.863281 L 247.4375 428.863281 L 247.4375 420.617188 L 239.191406 420.617188 L 239.191406 428.863281 L 230.945312 428.863281 L 230.945312 420.617188 L 239.191406 420.617188 L 239.191406 412.371094 L 230.945312 412.371094 L 230.945312 404.125 L 222.699219 404.125 L 222.699219 412.371094 L 230.945312 412.371094 L 230.945312 420.617188 L 222.699219 420.617188 L 222.699219 428.863281 L 214.453125 428.863281 L 214.453125 420.617188 L 206.207031 420.617188 L 206.207031 428.863281 L 214.453125 428.863281 L 214.453125 437.109375 L 206.207031 437.109375 L 206.207031 445.355469 L 214.453125 445.355469 L 214.453125 453.601562 L 222.699219 453.601562 L 222.699219 445.355469 L 230.945312 445.355469 L 230.945312 453.601562 L 222.699219 453.601562 L 222.699219 461.847656 L 214.453125 461.847656 L 214.453125 453.601562 L 206.207031 453.601562 L 206.207031 461.847656 L 197.960938 461.847656 L 197.960938 453.601562 L 206.207031 453.601562 L 206.207031 445.355469 L 197.960938 445.355469 L 197.960938 437.109375 L 189.714844 437.109375 L 189.714844 445.355469 L 181.46875 445.355469 L 181.46875 437.109375 L 189.714844 437.109375 L 189.714844 428.863281 L 197.960938 428.863281 L 197.960938 437.109375 L 206.207031 437.109375 L 206.207031 428.863281 L 197.960938 428.863281 L 197.960938 420.617188 L 206.207031 420.617188 L 206.207031 412.371094 L 197.960938 412.371094 L 197.960938 404.125 L 189.714844 404.125 L 189.714844 412.371094 L 181.46875 412.371094 L 181.46875 404.125 L 189.714844 404.125 L 189.714844 395.878906 L 197.960938 395.878906 L 197.960938 404.125 L 206.207031 404.125 L 206.207031 395.878906 L 214.453125 395.878906 L 214.453125 404.125 L 206.207031 404.125 L 206.207031 412.371094 L 214.453125 412.371094 L 214.453125 420.617188 L 222.699219 420.617188 L 222.699219 412.371094 L 214.453125 412.371094 L 214.453125 404.125 L 222.699219 404.125 L 222.699219 395.878906 L 230.945312 395.878906 L 230.945312 404.125 L 239.191406 404.125 L 239.191406 395.878906 L 230.945312 395.878906 L 230.945312 387.632812 L 239.191406 387.632812 L 239.191406 379.386719 L 230.945312 379.386719 L 230.945312 371.140625 L 222.699219 371.140625 L 222.699219 379.386719 L 214.453125 379.386719 L 214.453125 371.140625 L 222.699219 371.140625 L 222.699219 362.894531 L 230.945312 362.894531 L 230.945312 371.140625 L 239.191406 371.140625 L 239.191406 362.894531 L 247.4375 362.894531 L 247.4375 371.140625 L 239.191406 371.140625 L 239.191406 379.386719 L 247.4375 379.386719 L 247.4375 387.632812 L 255.683594 387.632812 L 255.683594 379.386719 L 263.929688 379.386719 L 263.929688 387.632812 L 255.683594 387.632812 L 255.683594 395.878906 L 247.4375 395.878906 L 247.4375 387.632812 L 239.191406 387.632812 L 239.191406 395.878906 L 247.4375 395.878906 L 247.4375 404.125 L 239.191406 404.125 L 239.191406 412.371094 L 247.4375 412.371094 L 247.4375 420.617188 L 255.683594 420.617188 L 255.683594 412.371094 L 247.4375 412.371094 L 247.4375 404.125 L 255.683594 404.125 L 255.683594 395.878906 L 263.929688 395.878906 L 263.929688 404.125 L 272.175781 404.125 L 272.175781 395.878906 L 280.421875 395.878906 L 280.421875 404.125 L 272.175781 404.125 L 272.175781 412.371094 L 280.421875 412.371094 L 280.421875 420.617188 L 288.667969 420.617188 L 288.667969 412.371094 L 280.421875 412.371094 L 280.421875 404.125 L 288.667969 404.125 L 288.667969 395.878906 L 296.914062 395.878906 L 296.914062 404.125 L 305.160156 404.125 L 305.160156 395.878906 L 296.914062 395.878906 L 296.914062 387.632812 L 305.160156 387.632812 L 305.160156 379.386719 L 296.914062 379.386719 L 296.914062 371.140625 L 288.667969 371.140625 L 288.667969 379.386719 L 280.421875 379.386719 L 280.421875 371.140625 L 288.667969 371.140625 L 288.667969 362.894531 L 296.914062 362.894531 L 296.914062 371.140625 L 305.160156 371.140625 L 305.160156 362.894531 L 313.40625 362.894531 L 313.40625 371.140625 L 305.160156 371.140625 L 305.160156 379.386719 L 313.40625 379.386719 L 313.40625 387.632812 L 321.652344 387.632812 L 321.652344 379.386719 L 329.898438 379.386719 L 329.898438 387.632812 L 321.652344 387.632812 L 321.652344 395.878906 L 313.40625 395.878906 L 313.40625 387.632812 L 305.160156 387.632812 L 305.160156 395.878906 L 313.40625 395.878906 L 313.40625 404.125 L 305.160156 404.125 L 305.160156 412.371094 L 313.40625 412.371094 L 313.40625 420.617188 L 321.652344 420.617188 L 321.652344 412.371094 L 329.898438 412.371094 L 329.898438 420.617188 L 321.652344 420.617188 L 321.652344 428.863281 L 313.40625 428.863281 L 313.40625 420.617188 L 305.160156 420.617188 L 305.160156 428.863281 L 296.914062 428.863281 L 296.914062 420.617188 L 305.160156 420.617188 L 305.160156 412.371094 L 296.914062 412.371094 L 296.914062 404.125 L 288.667969 404.125 L 288.667969 412.371094 L 296.914062 412.371094 L 296.914062 420.617188 L 288.667969 420.617188 L 288.667969 428.863281 L 280.421875 428.863281 L 280.421875 420.617188 L 272.175781 420.617188 L 272.175781 428.863281 L 280.421875 428.863281 L 280.421875 437.109375 L 272.175781 437.109375 L 272.175781 445.355469 L 280.421875 445.355469 L 280.421875 453.601562 L 288.667969 453.601562 L 288.667969 445.355469 L 280.421875 445.355469 L 280.421875 437.109375 L 288.667969 437.109375 L 288.667969 428.863281 L 296.914062 428.863281 L 296.914062 437.109375 L 305.160156 437.109375 L 305.160156 428.863281 L 313.40625 428.863281 L 313.40625 437.109375 L 305.160156 437.109375 L 305.160156 445.355469 L 313.40625 445.355469 L 313.40625 453.601562 L 321.652344 453.601562 L 321.652344 445.355469 L 329.898438 445.355469 L 329.898438 453.601562 L 321.652344 453.601562 L 321.652344 461.847656 L 313.40625 461.847656 L 313.40625 453.601562 L 305.160156 453.601562 L 305.160156 461.847656 L 313.40625 461.847656 L 313.40625 470.09375 L 305.160156 470.09375 L 305.160156 478.339844 L 313.40625 478.339844 L 313.40625 486.585938 L 321.652344 486.585938 L 321.652344 478.339844 L 313.40625 478.339844 L 313.40625 470.09375 L 321.652344 470.09375 L 321.652344 461.847656 L 329.898438 461.847656 L 329.898438 470.09375 L 338.144531 470.09375 L 338.144531 461.847656 L 346.390625 461.847656 L 346.390625 470.09375 L 338.144531 470.09375 L 338.144531 478.339844 L 346.390625 478.339844 L 346.390625 486.585938 L 354.636719 486.585938 L 354.636719 478.339844 L 346.390625 478.339844 L 346.390625 470.09375 L 354.636719 470.09375 L 354.636719 461.847656 L 362.882812 461.847656 L 362.882812 470.09375 L 371.128906 470.09375 L 371.128906 461.847656 L 362.882812 461.847656 L 362.882812 453.601562 L 371.128906 453.601562 L 371.128906 445.355469 L 362.882812 445.355469 L 362.882812 437.109375 L 354.636719 437.109375 L 354.636719 445.355469 L 362.882812 445.355469 L 362.882812 453.601562 L 354.636719 453.601562 L 354.636719 461.847656 L 346.390625 461.847656 L 346.390625 453.601562 L 338.144531 453.601562 L 338.144531 461.847656 L 329.898438 461.847656 L 329.898438 453.601562 L 338.144531 453.601562 L 338.144531 445.355469 L 329.898438 445.355469 L 329.898438 437.109375 L 321.652344 437.109375 L 321.652344 445.355469 L 313.40625 445.355469 L 313.40625 437.109375 L 321.652344 437.109375 L 321.652344 428.863281 L 329.898438 428.863281 L 329.898438 437.109375 L 338.144531 437.109375 L 338.144531 428.863281 L 329.898438 428.863281 L 329.898438 420.617188 L 338.144531 420.617188 L 338.144531 412.371094 L 329.898438 412.371094 L 329.898438 404.125 L 321.652344 404.125 L 321.652344 412.371094 L 313.40625 412.371094 L 313.40625 404.125 L 321.652344 404.125 L 321.652344 395.878906 L 329.898438 395.878906 L 329.898438 404.125 L 338.144531 404.125 L 338.144531 395.878906 L 346.390625 395.878906 L 346.390625 404.125 L 338.144531 404.125 L 338.144531 412.371094 L 346.390625 412.371094 L 346.390625 420.617188 L 354.636719 420.617188 L 354.636719 412.371094 L 346.390625 412.371094 L 346.390625 404.125 L 354.636719 404.125 L 354.636719 395.878906 L 362.882812 395.878906 L 362.882812 404.125 L 371.128906 404.125 L 371.128906 395.878906 L 362.882812 395.878906 L 362.882812 387.632812 L 371.128906 387.632812 L 371.128906 379.386719 L 362.882812 379.386719 L 362.882812 371.140625 L 354.636719 371.140625 L 354.636719 379.386719 L 346.390625 379.386719 L 346.390625 371.140625 L 354.636719 371.140625 L 354.636719 362.894531 L 362.882812 362.894531 L 362.882812 371.140625 L 371.128906 371.140625 L 371.128906 362.894531 L 379.375 362.894531 L 379.375 371.140625 L 371.128906 371.140625 L 371.128906 379.386719 L 379.375 379.386719 L 379.375 387.632812 L 387.621094 387.632812 L 387.621094 379.386719 L 395.867188 379.386719 L 395.867188 387.632812 L 387.621094 387.632812 L 387.621094 395.878906 L 379.375 395.878906 L 379.375 387.632812 L 371.128906 387.632812 L 371.128906 395.878906 L 379.375 395.878906 L 379.375 404.125 L 371.128906 404.125 L 371.128906 412.371094 L 379.375 412.371094 L 379.375 420.617188 L 387.621094 420.617188 L 387.621094 412.371094 L 379.375 412.371094 L 379.375 404.125 L 387.621094 404.125 L 387.621094 395.878906 L 395.867188 395.878906 L 395.867188 404.125 L 404.113281 404.125 L 404.113281 395.878906 L 412.359375 395.878906 L 412.359375 404.125 L 404.113281 404.125 L 404.113281 412.371094 L 412.359375 412.371094 L 412.359375 420.617188 L 420.605469 420.617188 L 420.605469 412.371094 L 412.359375 412.371094 L 412.359375 404.125 L 420.605469 404.125 L 420.605469 395.878906 L 428.851562 395.878906 L 428.851562 404.125 L 437.097656 404.125 L 437.097656 395.878906 L 428.851562 395.878906 L 428.851562 387.632812 L 437.097656 387.632812 L 437.097656 379.386719 L 428.851562 379.386719 L 428.851562 371.140625 L 420.605469 371.140625 L 420.605469 379.386719 L 428.851562 379.386719 L 428.851562 387.632812 L 420.605469 387.632812 L 420.605469 395.878906 L 412.359375 395.878906 L 412.359375 387.632812 L 404.113281 387.632812 L 404.113281 395.878906 L 395.867188 395.878906 L 395.867188 387.632812 L 404.113281 387.632812 L 404.113281 379.386719 L 395.867188 379.386719 L 395.867188 371.140625 L 387.621094 371.140625 L 387.621094 379.386719 L 379.375 379.386719 L 379.375 371.140625 L 387.621094 371.140625 L 387.621094 362.894531 L 395.867188 362.894531 L 395.867188 371.140625 L 404.113281 371.140625 L 404.113281 362.894531 L 395.867188 362.894531 L 395.867188 354.648438 L 404.113281 354.648438 L 404.113281 346.402344 L 395.867188 346.402344 L 395.867188 338.15625 L 387.621094 338.15625 L 387.621094 346.402344 L 379.375 346.402344 L 379.375 338.15625 L 387.621094 338.15625 L 387.621094 329.910156 L 395.867188 329.910156 L 395.867188 338.15625 L 404.113281 338.15625 L 404.113281 329.910156 L 412.359375 329.910156 L 412.359375 338.15625 L 404.113281 338.15625 L 404.113281 346.402344 L 412.359375 346.402344 L 412.359375 354.648438 L 420.605469 354.648438 L 420.605469 346.402344 L 412.359375 346.402344 L 412.359375 338.15625 L 420.605469 338.15625 L 420.605469 329.910156 L 428.851562 329.910156 L 428.851562 338.15625 L 437.097656 338.15625 L 437.097656 329.910156 L 428.851562 329.910156 L 428.851562 321.664062 L 437.097656 321.664062 L 437.097656 313.417969 L 428.851562 313.417969 L 428.851562 305.171875 L 420.605469 305.171875 L 420.605469 313.417969 L 428.851562 313.417969 L 428.851562 321.664062 L 420.605469 321.664062 L 420.605469 329.910156 L 412.359375 329.910156 L 412.359375 321.664062 L 404.113281 321.664062 L 404.113281 329.910156 L 395.867188 329.910156 L 395.867188 321.664062 L 404.113281 321.664062 L 404.113281 313.417969 L 395.867188 313.417969 L 395.867188 305.171875 L 387.621094 305.171875 L 387.621094 313.417969 L 379.375 313.417969 L 379.375 305.171875 L 387.621094 305.171875 L 387.621094 296.925781 L 395.867188 296.925781 L 395.867188 305.171875 L 404.113281 305.171875 L 404.113281 296.925781 L 395.867188 296.925781 L 395.867188 288.679688 L 404.113281 288.679688 L 404.113281 280.433594 L 395.867188 280.433594 L 395.867188 272.1875 L 387.621094 272.1875 L 387.621094 280.433594 L 395.867188 280.433594 L 395.867188 288.679688 L 387.621094 288.679688 L 387.621094 296.925781 L 379.375 296.925781 L 379.375 288.679688 L 371.128906 288.679688 L 371.128906 296.925781 L 362.882812 296.925781 L 362.882812 288.679688 L 371.128906 288.679688 L 371.128906 280.433594 L 362.882812 280.433594 L 362.882812 272.1875 L 354.636719 272.1875 L 354.636719 280.433594 L 362.882812 280.433594 L 362.882812 288.679688 L 354.636719 288.679688 L 354.636719 296.925781 L 346.390625 296.925781 L 346.390625 288.679688 L 338.144531 288.679688 L 338.144531 296.925781 L 346.390625 296.925781 L 346.390625 305.171875 L 338.144531 305.171875 L 338.144531 313.417969 L 346.390625 313.417969 L 346.390625 321.664062 L 354.636719 321.664062 L 354.636719 313.417969 L 346.390625 313.417969 L 346.390625 305.171875 L 354.636719 305.171875 L 354.636719 296.925781 L 362.882812 296.925781 L 362.882812 305.171875 L 371.128906 305.171875 L 371.128906 296.925781 L 379.375 296.925781 L 379.375 305.171875 L 371.128906 305.171875 L 371.128906 313.417969 L 379.375 313.417969 L 379.375 321.664062 L 387.621094 321.664062 L 387.621094 313.417969 L 395.867188 313.417969 L 395.867188 321.664062 L 387.621094 321.664062 L 387.621094 329.910156 L 379.375 329.910156 L 379.375 321.664062 L 371.128906 321.664062 L 371.128906 329.910156 L 379.375 329.910156 L 379.375 338.15625 L 371.128906 338.15625 L 371.128906 346.402344 L 379.375 346.402344 L 379.375 354.648438 L 387.621094 354.648438 L 387.621094 346.402344 L 395.867188 346.402344 L 395.867188 354.648438 L 387.621094 354.648438 L 387.621094 362.894531 L 379.375 362.894531 L 379.375 354.648438 L 371.128906 354.648438 L 371.128906 362.894531 L 362.882812 362.894531 L 362.882812 354.648438 L 371.128906 354.648438 L 371.128906 346.402344 L 362.882812 346.402344 L 362.882812 338.15625 L 354.636719 338.15625 L 354.636719 346.402344 L 362.882812 346.402344 L 362.882812 354.648438 L 354.636719 354.648438 L 354.636719 362.894531 L 346.390625 362.894531 L 346.390625 354.648438 L 338.144531 354.648438 L 338.144531 362.894531 L 346.390625 362.894531 L 346.390625 371.140625 L 338.144531 371.140625 L 338.144531 379.386719 L 346.390625 379.386719 L 346.390625 387.632812 L 354.636719 387.632812 L 354.636719 379.386719 L 362.882812 379.386719 L 362.882812 387.632812 L 354.636719 387.632812 L 354.636719 395.878906 L 346.390625 395.878906 L 346.390625 387.632812 L 338.144531 387.632812 L 338.144531 395.878906 L 329.898438 395.878906 L 329.898438 387.632812 L 338.144531 387.632812 L 338.144531 379.386719 L 329.898438 379.386719 L 329.898438 371.140625 L 321.652344 371.140625 L 321.652344 379.386719 L 313.40625 379.386719 L 313.40625 371.140625 L 321.652344 371.140625 L 321.652344 362.894531 L 329.898438 362.894531 L 329.898438 371.140625 L 338.144531 371.140625 L 338.144531 362.894531 L 329.898438 362.894531 L 329.898438 354.648438 L 338.144531 354.648438 L 338.144531 346.402344 L 329.898438 346.402344 L 329.898438 338.15625 L 321.652344 338.15625 L 321.652344 346.402344 L 329.898438 346.402344 L 329.898438 354.648438 L 321.652344 354.648438 L 321.652344 362.894531 L 313.40625 362.894531 L 313.40625 354.648438 L 305.160156 354.648438 L 305.160156 362.894531 L 296.914062 362.894531 L 296.914062 354.648438 L 305.160156 354.648438 L 305.160156 346.402344 L 296.914062 346.402344 L 296.914062 338.15625 L 288.667969 338.15625 L 288.667969 346.402344 L 296.914062 346.402344 L 296.914062 354.648438 L 288.667969 354.648438 L 288.667969 362.894531 L 280.421875 362.894531 L 280.421875 354.648438 L 272.175781 354.648438 L 272.175781 362.894531 L 280.421875 362.894531 L 280.421875 371.140625 L 272.175781 371.140625 L 272.175781 379.386719 L 280.421875 379.386719 L 280.421875 387.632812 L 288.667969 387.632812 L 288.667969 379.386719 L 296.914062 379.386719 L 296.914062 387.632812 L 288.667969 387.632812 L 288.667969 395.878906 L 280.421875 395.878906 L 280.421875 387.632812 L 272.175781 387.632812 L 272.175781 395.878906 L 263.929688 395.878906 L 263.929688 387.632812 L 272.175781 387.632812 L 272.175781 379.386719 L 263.929688 379.386719 L 263.929688 371.140625 L 255.683594 371.140625 L 255.683594 379.386719 L 247.4375 379.386719 L 247.4375 371.140625 L 255.683594 371.140625 L 255.683594 362.894531 L 263.929688 362.894531 L 263.929688 371.140625 L 272.175781 371.140625 L 272.175781 362.894531 L 263.929688 362.894531 L 263.929688 354.648438 L 272.175781 354.648438 L 272.175781 346.402344 L 263.929688 346.402344 L 263.929688 338.15625 L 255.683594 338.15625 L 255.683594 346.402344 L 247.4375 346.402344 L 247.4375 338.15625 L 255.683594 338.15625 L 255.683594 329.910156 L 263.929688 329.910156 L 263.929688 338.15625 L 272.175781 338.15625 L 272.175781 329.910156 L 280.421875 329.910156 L 280.421875 338.15625 L 272.175781 338.15625 L 272.175781 346.402344 L 280.421875 346.402344 L 280.421875 354.648438 L 288.667969 354.648438 L 288.667969 346.402344 L 280.421875 346.402344 L 280.421875 338.15625 L 288.667969 338.15625 L 288.667969 329.910156 L 296.914062 329.910156 L 296.914062 338.15625 L 305.160156 338.15625 L 305.160156 329.910156 L 296.914062 329.910156 L 296.914062 321.664062 L 305.160156 321.664062 L 305.160156 313.417969 L 296.914062 313.417969 L 296.914062 305.171875 L 288.667969 305.171875 L 288.667969 313.417969 L 296.914062 313.417969 L 296.914062 321.664062 L 288.667969 321.664062 L 288.667969 329.910156 L 280.421875 329.910156 L 280.421875 321.664062 L 272.175781 321.664062 L 272.175781 329.910156 L 263.929688 329.910156 L 263.929688 321.664062 L 272.175781 321.664062 L 272.175781 313.417969 L 263.929688 313.417969 L 263.929688 305.171875 L 255.683594 305.171875 L 255.683594 313.417969 L 247.4375 313.417969 L 247.4375 305.171875 L 255.683594 305.171875 L 255.683594 296.925781 L 263.929688 296.925781 L 263.929688 305.171875 L 272.175781 305.171875 L 272.175781 296.925781 L 263.929688 296.925781 L 263.929688 288.679688 L 272.175781 288.679688 L 272.175781 280.433594 L 263.929688 280.433594 L 263.929688 272.1875 L 255.683594 272.1875 L 255.683594 280.433594 L 263.929688 280.433594 L 263.929688 288.679688 L 255.683594 288.679688 L 255.683594 296.925781 L 247.4375 296.925781 L 247.4375 288.679688 L 239.191406 288.679688 L 239.191406 296.925781 L 230.945312 296.925781 L 230.945312 288.679688 L 239.191406 288.679688 L 239.191406 280.433594 L 230.945312 280.433594 L 230.945312 272.1875 L 222.699219 272.1875 L 222.699219 280.433594 L 230.945312 280.433594 L 230.945312 288.679688 L 222.699219 288.679688 L 222.699219 296.925781 L 214.453125 296.925781 L 214.453125 288.679688 L 206.207031 288.679688 L 206.207031 296.925781 L 214.453125 296.925781 L 214.453125 305.171875 L 206.207031 305.171875 L 206.207031 313.417969 L 214.453125 313.417969 L 214.453125 321.664062 L 222.699219 321.664062 L 222.699219 313.417969 L 230.945312 313.417969 L 230.945312 321.664062 L 222.699219 321.664062 L 222.699219 329.910156 L 214.453125 329.910156 L 214.453125 321.664062 L 206.207031 321.664062 L 206.207031 329.910156 L 197.960938 329.910156 L 197.960938 321.664062 L 206.207031 321.664062 L 206.207031 313.417969 L 197.960938 313.417969 L 197.960938 305.171875 L 189.714844 305.171875 L 189.714844 313.417969 L 181.46875 313.417969 L 181.46875 305.171875 L 189.714844 305.171875 L 189.714844 296.925781 L 197.960938 296.925781 L 197.960938 305.171875 L 206.207031 305.171875 L 206.207031 296.925781 L 197.960938 296.925781 L 197.960938 288.679688 L 206.207031 288.679688 L 206.207031 280.433594 L 197.960938 280.433594 L 197.960938 272.1875 L 189.714844 272.1875 L 189.714844 280.433594 L 181.46875 280.433594 L 181.46875 272.1875 L 189.714844 272.1875 L 189.714844 263.941406 L 197.960938 263.941406 L 197.960938 272.1875 L 206.207031 272.1875 L 206.207031 263.941406 L 214.453125 263.941406 L 214.453125 272.1875 L 206.207031 272.1875 L 206.207031 280.433594 L 214.453125 280.433594 L 214.453125 288.679688 L 222.699219 288.679688 L 222.699219 280.433594 L 214.453125 280.433594 L 214.453125 272.1875 L 222.699219 272.1875 L 222.699219 263.941406 L 230.945312 263.941406 L 230.945312 272.1875 L 239.191406 272.1875 L 239.191406 263.941406 L 230.945312 263.941406 L 230.945312 255.695312 L 239.191406 255.695312 L 239.191406 247.449219 L 230.945312 247.449219 L 230.945312 239.203125 L 222.699219 239.203125 L 222.699219 247.449219 L 214.453125 247.449219 L 214.453125 239.203125 L 222.699219 239.203125 L 222.699219 230.957031 L 230.945312 230.957031 L 230.945312 239.203125 L 239.191406 239.203125 L 239.191406 230.957031 L 247.4375 230.957031 L 247.4375 239.203125 L 239.191406 239.203125 L 239.191406 247.449219 L 247.4375 247.449219 L 247.4375 255.695312 L 255.683594 255.695312 L 255.683594 247.449219 L 263.929688 247.449219 L 263.929688 255.695312 L 255.683594 255.695312 L 255.683594 263.941406 L 247.4375 263.941406 L 247.4375 255.695312 L 239.191406 255.695312 L 239.191406 263.941406 L 247.4375 263.941406 L 247.4375 272.1875 L 239.191406 272.1875 L 239.191406 280.433594 L 247.4375 280.433594 L 247.4375 288.679688 L 255.683594 288.679688 L 255.683594 280.433594 L 247.4375 280.433594 L 247.4375 272.1875 L 255.683594 272.1875 L 255.683594 263.941406 L 263.929688 263.941406 L 263.929688 272.1875 L 272.175781 272.1875 L 272.175781 263.941406 L 280.421875 263.941406 L 280.421875 272.1875 L 272.175781 272.1875 L 272.175781 280.433594 L 280.421875 280.433594 L 280.421875 288.679688 L 288.667969 288.679688 L 288.667969 280.433594 L 280.421875 280.433594 L 280.421875 272.1875 L 288.667969 272.1875 L 288.667969 263.941406 L 296.914062 263.941406 L 296.914062 272.1875 L 305.160156 272.1875 L 305.160156 263.941406 L 296.914062 263.941406 L 296.914062 255.695312 L 305.160156 255.695312 L 305.160156 247.449219 L 296.914062 247.449219 L 296.914062 239.203125 L 288.667969 239.203125 L 288.667969 247.449219 L 296.914062 247.449219 L 296.914062 255.695312 L 288.667969 255.695312 L 288.667969 263.941406 L 280.421875 263.941406 L 280.421875 255.695312 L 272.175781 255.695312 L 272.175781 263.941406 L 263.929688 263.941406 L 263.929688 255.695312 L 272.175781 255.695312 L 272.175781 247.449219 L 263.929688 247.449219 L 263.929688 239.203125 L 255.683594 239.203125 L 255.683594 247.449219 L 247.4375 247.449219 L 247.4375 239.203125 L 255.683594 239.203125 L 255.683594 230.957031 L 263.929688 230.957031 L 263.929688 239.203125 L 272.175781 239.203125 L 272.175781 230.957031 L 263.929688 230.957031 L 263.929688 222.710938 L 272.175781 222.710938 L 272.175781 214.464844 L 263.929688 214.464844 L 263.929688 206.21875 L 255.683594 206.21875 L 255.683594 214.464844 L 247.4375 214.464844 L 247.4375 206.21875 L 255.683594 206.21875 L 255.683594 197.972656 L 263.929688 197.972656 L 263.929688 206.21875 L 272.175781 206.21875 L 272.175781 197.972656 L 280.421875 197.972656 L 280.421875 206.21875 L 272.175781 206.21875 L 272.175781 214.464844 L 280.421875 214.464844 L 280.421875 222.710938 L 288.667969 222.710938 L 288.667969 214.464844 L 280.421875 214.464844 L 280.421875 206.21875 L 288.667969 206.21875 L 288.667969 197.972656 L 296.914062 197.972656 L 296.914062 206.21875 L 305.160156 206.21875 L 305.160156 197.972656 L 296.914062 197.972656 L 296.914062 189.726562 L 305.160156 189.726562 L 305.160156 181.480469 L 296.914062 181.480469 L 296.914062 173.234375 L 288.667969 173.234375 L 288.667969 181.480469 L 296.914062 181.480469 L 296.914062 189.726562 L 288.667969 189.726562 L 288.667969 197.972656 L 280.421875 197.972656 L 280.421875 189.726562 L 272.175781 189.726562 L 272.175781 197.972656 L 263.929688 197.972656 L 263.929688 189.726562 L 272.175781 189.726562 L 272.175781 181.480469 L 263.929688 181.480469 L 263.929688 173.234375 L 255.683594 173.234375 L 255.683594 181.480469 L 247.4375 181.480469 L 247.4375 173.234375 L 255.683594 173.234375 L 255.683594 164.988281 L 263.929688 164.988281 L 263.929688 173.234375 L 272.175781 173.234375 L 272.175781 164.988281 L 263.929688 164.988281 L 263.929688 156.742188 L 272.175781 156.742188 L 272.175781 148.496094 L 263.929688 148.496094 L 263.929688 140.25 L 255.683594 140.25 L 255.683594 148.496094 L 263.929688 148.496094 L 263.929688 156.742188 L 255.683594 156.742188 L 255.683594 164.988281 L 247.4375 164.988281 L 247.4375 156.742188 L 239.191406 156.742188 L 239.191406 164.988281 L 230.945312 164.988281 L 230.945312 156.742188 L 239.191406 156.742188 L 239.191406 148.496094 L 230.945312 148.496094 L 230.945312 140.25 L 222.699219 140.25 L 222.699219 148.496094 L 230.945312 148.496094 L 230.945312 156.742188 L 222.699219 156.742188 L 222.699219 164.988281 L 214.453125 164.988281 L 214.453125 156.742188 L 206.207031 156.742188 L 206.207031 164.988281 L 214.453125 164.988281 L 214.453125 173.234375 L 206.207031 173.234375 L 206.207031 181.480469 L 214.453125 181.480469 L 214.453125 189.726562 L 222.699219 189.726562 L 222.699219 181.480469 L 214.453125 181.480469 L 214.453125 173.234375 L 222.699219 173.234375 L 222.699219 164.988281 L 230.945312 164.988281 L 230.945312 173.234375 L 239.191406 173.234375 L 239.191406 164.988281 L 247.4375 164.988281 L 247.4375 173.234375 L 239.191406 173.234375 L 239.191406 181.480469 L 247.4375 181.480469 L 247.4375 189.726562 L 255.683594 189.726562 L 255.683594 181.480469 L 263.929688 181.480469 L 263.929688 189.726562 L 255.683594 189.726562 L 255.683594 197.972656 L 247.4375 197.972656 L 247.4375 189.726562 L 239.191406 189.726562 L 239.191406 197.972656 L 247.4375 197.972656 L 247.4375 206.21875 L 239.191406 206.21875 L 239.191406 214.464844 L 247.4375 214.464844 L 247.4375 222.710938 L 255.683594 222.710938 L 255.683594 214.464844 L 263.929688 214.464844 L 263.929688 222.710938 L 255.683594 222.710938 L 255.683594 230.957031 L 247.4375 230.957031 L 247.4375 222.710938 L 239.191406 222.710938 L 239.191406 230.957031 L 230.945312 230.957031 L 230.945312 222.710938 L 239.191406 222.710938 L 239.191406 214.464844 L 230.945312 214.464844 L 230.945312 206.21875 L 222.699219 206.21875 L 222.699219 214.464844 L 230.945312 214.464844 L 230.945312 222.710938 L 222.699219 222.710938 L 222.699219 230.957031 L 214.453125 230.957031 L 214.453125 222.710938 L 206.207031 222.710938 L 206.207031 230.957031 L 214.453125 230.957031 L 214.453125 239.203125 L 206.207031 239.203125 L 206.207031 247.449219 L 214.453125 247.449219 L 214.453125 255.695312 L 222.699219 255.695312 L 222.699219 247.449219 L 230.945312 247.449219 L 230.945312 255.695312 L 222.699219 255.695312 L 222.699219 263.941406 L 214.453125 263.941406 L 214.453125 255.695312 L 206.207031 255.695312 L 206.207031 263.941406 L 197.960938 263.941406 L 197.960938 255.695312 L 206.207031 255.695312 L 206.207031 247.449219 L 197.960938 247.449219 L 197.960938 239.203125 L 189.714844 239.203125 L 189.714844 247.449219 L 181.46875 247.449219 L 181.46875 239.203125 L 189.714844 239.203125 L 189.714844 230.957031 L 197.960938 230.957031 L 197.960938 239.203125 L 206.207031 239.203125 L 206.207031 230.957031 L 197.960938 230.957031 L 197.960938 222.710938 L 206.207031 222.710938 L 206.207031 214.464844 L 197.960938 214.464844 L 197.960938 206.21875 L 189.714844 206.21875 L 189.714844 214.464844 L 197.960938 214.464844 L 197.960938 222.710938 L 189.714844 222.710938 L 189.714844 230.957031 L 181.46875 230.957031 L 181.46875 222.710938 L 173.222656 222.710938 L 173.222656 230.957031 L 164.976562 230.957031 L 164.976562 222.710938 L 173.222656 222.710938 L 173.222656 214.464844 L 164.976562 214.464844 L 164.976562 206.21875 L 156.730469 206.21875 L 156.730469 214.464844 L 164.976562 214.464844 L 164.976562 222.710938 L 156.730469 222.710938 L 156.730469 230.957031 L 148.484375 230.957031 L 148.484375 222.710938 L 140.238281 222.710938 L 140.238281 230.957031 L 148.484375 230.957031 L 148.484375 239.203125 L 140.238281 239.203125 L 140.238281 247.449219 L 148.484375 247.449219 L 148.484375 255.695312 L 156.730469 255.695312 L 156.730469 247.449219 L 164.976562 247.449219 L 164.976562 255.695312 L 156.730469 255.695312 L 156.730469 263.941406 L 148.484375 263.941406 L 148.484375 255.695312 L 140.238281 255.695312 L 140.238281 263.941406 L 131.992188 263.941406 L 131.992188 255.695312 L 140.238281 255.695312 L 140.238281 247.449219 L 131.992188 247.449219 L 131.992188 239.203125 L 123.746094 239.203125 L 123.746094 247.449219 L 115.5 247.449219 L 115.5 239.203125 L 123.746094 239.203125 L 123.746094 230.957031 L 131.992188 230.957031 L 131.992188 239.203125 L 140.238281 239.203125 L 140.238281 230.957031 L 131.992188 230.957031 L 131.992188 222.710938 L 140.238281 222.710938 L 140.238281 214.464844 L 131.992188 214.464844 L 131.992188 206.21875 L 123.746094 206.21875 L 123.746094 214.464844 L 115.5 214.464844 L 115.5 206.21875 L 123.746094 206.21875 L 123.746094 197.972656 L 131.992188 197.972656 L 131.992188 206.21875 L 140.238281 206.21875 L 140.238281 197.972656 L 148.484375 197.972656 L 148.484375 206.21875 L 140.238281 206.21875 L 140.238281 214.464844 L 148.484375 214.464844 L 148.484375 222.710938 L 156.730469 222.710938 L 156.730469 214.464844 L 148.484375 214.464844 L 148.484375 206.21875 L 156.730469 206.21875 L 156.730469 197.972656 L 164.976562 197.972656 L 164.976562 206.21875 L 173.222656 206.21875 L 173.222656 197.972656 L 164.976562 197.972656 L 164.976562 189.726562 L 173.222656 189.726562 L 173.222656 181.480469 L 164.976562 181.480469 L 164.976562 173.234375 L 156.730469 173.234375 L 156.730469 181.480469 L 164.976562 181.480469 L 164.976562 189.726562 L 156.730469 189.726562 L 156.730469 197.972656 L 148.484375 197.972656 L 148.484375 189.726562 L 140.238281 189.726562 L 140.238281 197.972656 L 131.992188 197.972656 L 131.992188 189.726562 L 140.238281 189.726562 L 140.238281 181.480469 L 131.992188 181.480469 L 131.992188 173.234375 L 123.746094 173.234375 L 123.746094 181.480469 L 115.5 181.480469 L 115.5 173.234375 L 123.746094 173.234375 L 123.746094 164.988281 L 131.992188 164.988281 L 131.992188 173.234375 L 140.238281 173.234375 L 140.238281 164.988281 L 131.992188 164.988281 L 131.992188 156.742188 L 140.238281 156.742188 L 140.238281 148.496094 L 131.992188 148.496094 L 131.992188 140.25 L 123.746094 140.25 L 123.746094 148.496094 L 131.992188 148.496094 L 131.992188 156.742188 L 123.746094 156.742188 L 123.746094 164.988281 L 115.5 164.988281 L 115.5 156.742188 L 107.253906 156.742188 L 107.253906 164.988281 L 99.007812 164.988281 L 99.007812 156.742188 L 107.253906 156.742188 L 107.253906 148.496094 L 99.007812 148.496094 L 99.007812 140.25 L 90.761719 140.25 L 90.761719 148.496094 L 99.007812 148.496094 L 99.007812 156.742188 L 90.761719 156.742188 L 90.761719 164.988281 L 82.515625 164.988281 L 82.515625 156.742188 L 74.269531 156.742188 L 74.269531 164.988281 L 82.515625 164.988281 L 82.515625 173.234375 L 74.269531 173.234375 L 74.269531 181.480469 L 82.515625 181.480469 L 82.515625 189.726562 L 90.761719 189.726562 L 90.761719 181.480469 L 82.515625 181.480469 L 82.515625 173.234375 L 90.761719 173.234375 L 90.761719 164.988281 L 99.007812 164.988281 L 99.007812 173.234375 L 107.253906 173.234375 L 107.253906 164.988281 L 115.5 164.988281 L 115.5 173.234375 L 107.253906 173.234375 L 107.253906 181.480469 L 115.5 181.480469 L 115.5 189.726562 L 123.746094 189.726562 L 123.746094 181.480469 L 131.992188 181.480469 L 131.992188 189.726562 L 123.746094 189.726562 L 123.746094 197.972656 L 115.5 197.972656 L 115.5 189.726562 L 107.253906 189.726562 L 107.253906 197.972656 L 115.5 197.972656 L 115.5 206.21875 L 107.253906 206.21875 L 107.253906 214.464844 L 115.5 214.464844 L 115.5 222.710938 L 123.746094 222.710938 L 123.746094 214.464844 L 131.992188 214.464844 L 131.992188 222.710938 L 123.746094 222.710938 L 123.746094 230.957031 L 115.5 230.957031 L 115.5 222.710938 L 107.253906 222.710938 L 107.253906 230.957031 L 99.007812 230.957031 L 99.007812 222.710938 L 107.253906 222.710938 L 107.253906 214.464844 L 99.007812 214.464844 L 99.007812 206.21875 L 90.761719 206.21875 L 90.761719 214.464844 L 99.007812 214.464844 L 99.007812 222.710938 L 90.761719 222.710938 L 90.761719 230.957031 L 82.515625 230.957031 L 82.515625 222.710938 L 74.269531 222.710938 L 74.269531 230.957031 L 82.515625 230.957031 L 82.515625 239.203125 L 74.269531 239.203125 L 74.269531 247.449219 L 82.515625 247.449219 L 82.515625 255.695312 L 90.761719 255.695312 L 90.761719 247.449219 L 99.007812 247.449219 L 99.007812 255.695312 L 90.761719 255.695312 L 90.761719 263.941406 L 82.515625 263.941406 L 82.515625 255.695312 L 74.269531 255.695312 L 74.269531 263.941406 L 66.023438 263.941406 L 66.023438 255.695312 L 74.269531 255.695312 L 74.269531 247.449219 L 66.023438 247.449219 L 66.023438 239.203125 L 57.777344 239.203125 L 57.777344 247.449219 L 49.53125 247.449219 L 49.53125 239.203125 L 57.777344 239.203125 L 57.777344 230.957031 L 66.023438 230.957031 L 66.023438 239.203125 L 74.269531 239.203125 L 74.269531 230.957031 L 66.023438 230.957031 L 66.023438 222.710938 L 74.269531 222.710938 L 74.269531 214.464844 L 66.023438 214.464844 L 66.023438 206.21875 L 57.777344 206.21875 L 57.777344 214.464844 L 66.023438 214.464844 L 66.023438 222.710938 L 57.777344 222.710938 L 57.777344 230.957031 L 49.53125 230.957031 L 49.53125 222.710938 L 41.285156 222.710938 L 41.285156 230.957031 L 33.039062 230.957031 L 33.039062 222.710938 L 41.285156 222.710938 L 41.285156 214.464844 L 33.039062 214.464844 L 33.039062 206.21875 L 24.792969 206.21875 L 24.792969 214.464844 L 33.039062 214.464844 L 33.039062 222.710938 L 24.792969 222.710938 L 24.792969 230.957031 L 16.546875 230.957031 L 16.546875 222.710938 L 8.300781 222.710938 L 8.300781 230.957031 L 16.546875 230.957031 L 16.546875 239.203125 L 8.300781 239.203125 L 8.300781 247.449219 L 16.546875 247.449219 L 16.546875 255.695312 L 24.792969 255.695312 L 24.792969 247.449219 L 16.546875 247.449219 L 16.546875 239.203125 L 24.792969 239.203125 L 24.792969 230.957031 L 33.039062 230.957031 L 33.039062 239.203125 L 41.285156 239.203125 L 41.285156 230.957031 L 49.53125 230.957031 L 49.53125 239.203125 L 41.285156 239.203125 L 41.285156 247.449219 L 49.53125 247.449219 L 49.53125 255.695312 L 57.777344 255.695312 L 57.777344 247.449219 L 66.023438 247.449219 L 66.023438 255.695312 L 57.777344 255.695312 L 57.777344 263.941406 L 49.53125 263.941406 L 49.53125 255.695312 L 41.285156 255.695312 L 41.285156 263.941406 L 49.53125 263.941406 L 49.53125 272.1875 L 41.285156 272.1875 L 41.285156 280.433594 L 49.53125 280.433594 L 49.53125 288.679688 L 57.777344 288.679688 L 57.777344 280.433594 L 66.023438 280.433594 L 66.023438 288.679688 L 57.777344 288.679688 L 57.777344 296.925781 L 49.53125 296.925781 L 49.53125 288.679688 L 41.285156 288.679688 L 41.285156 296.925781 L 33.039062 296.925781 L 33.039062 288.679688 L 41.285156 288.679688 L 41.285156 280.433594 L 33.039062 280.433594 L 33.039062 272.1875 L 24.792969 272.1875 L 24.792969 280.433594 L 33.039062 280.433594 L 33.039062 288.679688 L 24.792969 288.679688 L 24.792969 296.925781 L 16.546875 296.925781 L 16.546875 288.679688 L 8.300781 288.679688 L 8.300781 296.925781 L 16.546875 296.925781 L 16.546875 305.171875 L 8.300781 305.171875 L 8.300781 313.417969 L 16.546875 313.417969 L 16.546875 321.664062 L 24.792969 321.664062 L 24.792969 313.417969 L 16.546875 313.417969 L 16.546875 305.171875 L 24.792969 305.171875 L 24.792969 296.925781 L 33.039062 296.925781 L 33.039062 305.171875 L 41.285156 305.171875 L 41.285156 296.925781 L 49.53125 296.925781 L 49.53125 305.171875 L 41.285156 305.171875 L 41.285156 313.417969 L 49.53125 313.417969 L 49.53125 321.664062 L 57.777344 321.664062 L 57.777344 313.417969 L 66.023438 313.417969 L 66.023438 321.664062 L 57.777344 321.664062 L 57.777344 329.910156 L 49.53125 329.910156 L 49.53125 321.664062 L 41.285156 321.664062 L 41.285156 329.910156 L 49.53125 329.910156 L 49.53125 338.15625 L 41.285156 338.15625 L 41.285156 346.402344 L 49.53125 346.402344 L 49.53125 354.648438 L 57.777344 354.648438 L 57.777344 346.402344 L 49.53125 346.402344 L 49.53125 338.15625 L 57.777344 338.15625 L 57.777344 329.910156 L 66.023438 329.910156 L 66.023438 338.15625 L 74.269531 338.15625 L 74.269531 329.910156 L 82.515625 329.910156 L 82.515625 338.15625 L 74.269531 338.15625 L 74.269531 346.402344 L 82.515625 346.402344 L 82.515625 354.648438 L 90.761719 354.648438 L 90.761719 346.402344 L 82.515625 346.402344 L 82.515625 338.15625 L 90.761719 338.15625 L 90.761719 329.910156 L 99.007812 329.910156 L 99.007812 338.15625 L 107.253906 338.15625 L 107.253906 329.910156 L 99.007812 329.910156 L 99.007812 321.664062 L 107.253906 321.664062 L 107.253906 313.417969 L 99.007812 313.417969 L 99.007812 305.171875 L 90.761719 305.171875 L 90.761719 313.417969 "/>
</svg>
