<?xml version="1.0" encoding="UTF-8"?>
<svg xmlns="http://www.w3.org/2000/svg" xmlns:xlink="http://www.w3.org/1999/xlink" width="800" height="800" viewBox="0 0 800 800">
<path fill-rule="nonzero" fill="rgb(82.745098%, 82.745098%, 82.745098%)" fill-opacity="1" d="M 799.878906 732.207031 L 799.878906 67.792969 L 0.125 67.792969 L 0.125 732.207031 Z M 799.878906 732.207031 "/>
<path fill="none" stroke-width="0.5" stroke-linecap="butt" stroke-linejoin="miter" stroke="rgb(0%, 0%, 0%)" stroke-opacity="1" stroke-miterlimit="10" d="M 529.191406 203.136719 L 541.496094 203.136719 L 541.496094 215.441406 L 529.191406 215.441406 L 529.191406 227.746094 L 516.886719 227.746094 L 516.886719 215.441406 L 504.582031 215.441406 L 504.582031 227.746094 L 492.277344 227.746094 L 492.277344 215.441406 L 504.582031 215.441406 L 504.582031 203.136719 L 492.277344 203.136719 L 492.277344 190.832031 L 479.972656 190.832031 L 479.972656 203.136719 L 467.667969 203.136719 L 467.667969 190.832031 L 479.972656 190.832031 L 479.972656 178.527344 L 492.277344 178.527344 L 492.277344 190.832031 L 504.582031 190.832031 L 504.582031 178.527344 L 492.277344 178.527344 L 492.277344 166.222656 L 504.582031 166.222656 L 504.582031 153.917969 L 492.277344 153.917969 L 492.277344 141.613281 L 479.972656 141.613281 L 479.972656 153.917969 L 467.667969 153.917969 L 467.667969 141.613281 L 479.972656 141.613281 L 479.972656 129.308594 L 492.277344 129.308594 L 492.277344 141.613281 L 504.582031 141.613281 L 504.582031 129.308594 L 516.886719 129.308594 L 516.886719 141.613281 L 504.582031 141.613281 L 504.582031 153.917969 L 516.886719 153.917969 L 516.886719 166.222656 L 529.191406 166.222656 L 529.191406 153.917969 L 516.886719 153.917969 L 516.886719 141.613281 L 529.191406 141.613281 L 529.191406 129.308594 L 541.496094 129.308594 L 541.496094 141.613281 L 553.800781 141.613281 L 553.800781 129.308594 L 541.496094 129.308594 L 541.496094 117.003906 L 553.800781 117.003906 L 553.800781 104.699219 L 541.496094 104.699219 L 541.496094 92.394531 L 529.191406 92.394531 L 529.191406 104.699219 L 516.886719 104.699219 L 516.886719 92.394531 L 529.191406 92.394531 L 529.191406 80.089844 L 541.496094 80.089844 L 541.496094 92.394531 L 553.800781 92.394531 L 553.800781 80.089844 L 566.105469 80.089844 L 566.105469 92.394531 L 553.800781 92.394531 L 553.800781 104.699219 L 566.105469 104.699219 L 566.105469 117.003906 L 578.410156 117.003906 L 578.410156 104.699219 L 590.714844 104.699219 L 590.714844 117.003906 L 578.410156 117.003906 L 578.410156 129.308594 L 566.105469 129.308594 L 566.105469 117.003906 L 553.800781 117.003906 L 553.800781 129.308594 L 566.105469 129.308594 L 566.105469 141.613281 L 553.800781 141.613281 L 553.800781 153.917969 L 566.105469 153.917969 L 566.105469 166.222656 L 578.410156 166.222656 L 578.410156 153.917969 L 566.105469 153.917969 L 566.105469 141.613281 L 578.410156 141.613281 L 578.410156 129.308594 L 590.714844 129.308594 L 590.714844 141.613281 L 603.019531 141.613281 L 603.019531 129.308594 L 615.324219 129.308594 L 615.324219 141.613281 L 603.019531 141.613281 L 603.019531 153.917969 L 615.324219 153.917969 L 615.324219 166.222656 L 627.628906 166.222656 L 627.628906 153.917969 L 615.324219 153.917969 L 615.324219 141.613281 L 627.628906 141.613281 L 627.628906 129.308594 L 639.933594 129.308594 L 639.933594 141.613281 L 652.238281 141.613281 L 652.238281 129.308594 L 639.933594 129.308594 L 639.933594 117.003906 L 652.238281 117.003906 L 652.238281 104.699219 L 639.933594 104.699219 L 639.933594 92.394531 L 627.628906 92.394531 L 627.628906 104.699219 L 615.324219 104.699219 L 615.324219 92.394531 L 627.628906 92.394531 L 627.628906 80.089844 L 639.933594 80.089844 L 639.933594 92.394531 L 652.238281 92.394531 L 652.238281 80.089844 L 664.542969 80.089844 L 664.542969 92.394531 L 652.238281 92.394531 L 652.238281 104.699219 L 664.542969 104.699219 L 664.542969 117.003906 L 676.847656 117.003906 L 676.847656 104.699219 L 689.152344 104.699219 L 689.152344 117.003906 L 676.847656 117.003906 L 676.847656 129.308594 L 664.542969 129.308594 L 664.542969 117.003906 L 652.238281 117.003906 L 652.238281 129.308594 L 664.542969 129.308594 L 664.542969 141.613281 L 652.238281 141.613281 L 652.238281 153.917969 L 664.542969 153.917969 L 664.542969 166.222656 L 676.847656 166.222656 L 676.847656 153.917969 L 689.152344 153.917969 L 689.152344 166.222656 L 676.847656 166.222656 L 676.847656 178.527344 L 664.542969 178.527344 L 664.542969 166.222656 L 652.238281 166.222656 L 652.238281 178.527344 L 639.933594 178.527344 L 639.933594 166.222656 L 652.238281 166.222656 L 652.238281 153.917969 L 639.933594 153.917969 L 639.933594 141.613281 L 627.628906 141.613281 L 627.628906 153.917969 L 639.933594 153.917969 L 639.933594 166.222656 L 627.628906 166.222656 L 627.628906 178.527344 L 615.324219 178.527344 L 615.324219 166.222656 L 603.019531 166.222656 L 603.019531 178.527344 L 615.324219 178.527344 L 615.324219 190.832031 L 603.019531 190.832031 L 603.019531 203.136719 L 615.324219 203.136719 L 615.324219 215.441406 L 627.628906 215.441406 L 627.628906 203.136719 L 615.324219 203.136719 L 615.324219 190.832031 L 627.628906 190.832031 L 627.628906 178.527344 L 639.933594 178.527344 L 639.933594 190.832031 L 652.238281 190.832031 L 652.238281 178.527344 L 664.542969 178.527344 L 664.542969 190.832031 L 652.238281 190.832031 L 652.238281 203.136719 L 664.542969 203.136719 L 664.542969 215.441406 L 676.847656 215.441406 L 676.847656 203.136719 L 689.152344 203.136719 L 689.152344 215.441406 L 676.847656 215.441406 L 676.847656 227.746094 L 664.542969 227.746094 L 664.542969 215.441406 L 652.238281 215.441406 L 652.238281 227.746094 L 664.542969 227.746094 L 664.542969 240.050781 L 652.238281 240.050781 L 652.238281 252.355469 L 664.542969 252.355469 L 664.542969 264.660156 L 676.847656 264.660156 L 676.847656 252.355469 L 664.542969 252.355469 L 664.542969 240.050781 L 676.847656 240.050781 L 676.847656 227.746094 L 689.152344 227.746094 L 689.152344 240.050781 L 701.457031 240.050781 L 701.457031 227.746094 L 713.761719 227.746094 L 713.761719 240.050781 L 701.457031 240.050781 L 701.457031 252.355469 L 713.761719 252.355469 L 713.761719 264.660156 L 726.066406 264.660156 L 726.066406 252.355469 L 713.761719 252.355469 L 713.761719 240.050781 L 726.066406 240.050781 L 726.066406 227.746094 L 738.371094 227.746094 L 738.371094 240.050781 L 750.675781 240.050781 L 750.675781 227.746094 L 738.371094 227.746094 L 738.371094 215.441406 L 750.675781 215.441406 L 750.675781 203.136719 L 738.371094 203.136719 L 738.371094 190.832031 L 726.066406 190.832031 L 726.066406 203.136719 L 713.761719 203.136719 L 713.761719 190.832031 L 726.066406 190.832031 L 726.066406 178.527344 L 738.371094 178.527344 L 738.371094 190.832031 L 750.675781 190.832031 L 750.675781 178.527344 L 762.980469 178.527344 L 762.980469 190.832031 L 750.675781 190.832031 L 750.675781 203.136719 L 762.980469 203.136719 L 762.980469 215.441406 L 775.285156 215.441406 L 775.285156 203.136719 L 787.589844 203.136719 L 787.589844 215.441406 L 775.285156 215.441406 L 775.285156 227.746094 L 762.980469 227.746094 L 762.980469 215.441406 L 750.675781 215.441406 L 750.675781 227.746094 L 762.980469 227.746094 L 762.980469 240.050781 L 750.675781 240.050781 L 750.675781 252.355469 L 762.980469 252.355469 L 762.980469 264.660156 L 775.285156 264.660156 L 775.285156 252.355469 L 787.589844 252.355469 L 787.589844 264.660156 L 775.285156 264.660156 L 775.285156 276.964844 L 762.980469 276.964844 L 762.980469 264.660156 L 750.675781 264.660156 L 750.675781 276.964844 L 738.371094 276.964844 L 738.371094 264.660156 L 750.675781 264.660156 L 750.675781 252.355469 L 738.371094 252.355469 L 738.371094 240.050781 L 726.066406 240.050781 L 726.066406 252.355469 L 738.371094 252.355469 L 738.371094 264.660156 L 726.066406 264.660156 L 726.066406 276.964844 L 713.761719 276.964844 L 713.761719 264.660156 L 701.457031 264.660156 L 701.457031 276.964844 L 713.761719 276.964844 L 713.761719 289.269531 L 701.457031 289.269531 L 701.457031 301.574219 L 713.761719 301.574219 L 713.761719 313.878906 L 726.066406 313.878906 L 726.066406 301.574219 L 738.371094 301.574219 L 738.371094 313.878906 L 726.066406 313.878906 L 726.066406 326.183594 L 713.761719 326.183594 L 713.761719 313.878906 L 701.457031 313.878906 L 701.457031 326.183594 L 689.152344 326.183594 L 689.152344 313.878906 L 701.457031 313.878906 L 701.457031 301.574219 L 689.152344 301.574219 L 689.152344 289.269531 L 676.847656 289.269531 L 676.847656 301.574219 L 664.542969 301.574219 L 664.542969 289.269531 L 676.847656 289.269531 L 676.847656 276.964844 L 689.152344 276.964844 L 689.152344 289.269531 L 701.457031 289.269531 L 701.457031 276.964844 L 689.152344 276.964844 L 689.152344 264.660156 L 701.457031 264.660156 L 701.457031 252.355469 L 689.152344 252.355469 L 689.152344 240.050781 L 676.847656 240.050781 L 676.847656 252.355469 L 689.152344 252.355469 L 689.152344 264.660156 L 676.847656 264.660156 L 676.847656 276.964844 L 664.542969 276.964844 L 664.542969 264.660156 L 652.238281 264.660156 L 652.238281 276.964844 L 639.933594 276.964844 L 639.933594 264.660156 L 652.238281 264.660156 L 652.238281 252.355469 L 639.933594 252.355469 L 639.933594 240.050781 L 627.628906 240.050781 L 627.628906 252.355469 L 639.933594 252.355469 L 639.933594 264.660156 L 627.628906 264.660156 L 627.628906 276.964844 L 615.324219 276.964844 L 615.324219 264.660156 L 603.019531 264.660156 L 603.019531 276.964844 L 615.324219 276.964844 L 615.324219 289.269531 L 603.019531 289.269531 L 603.019531 301.574219 L 615.324219 301.574219 L 615.324219 313.878906 L 627.628906 313.878906 L 627.628906 301.574219 L 615.324219 301.574219 L 615.324219 289.269531 L 627.628906 289.269531 L 627.628906 276.964844 L 639.933594 276.964844 L 639.933594 289.269531 L 652.238281 289.269531 L 652.238281 276.964844 L 664.542969 276.964844 L 664.542969 289.269531 L 652.238281 289.269531 L 652.238281 301.574219 L 664.542969 301.574219 L 664.542969 313.878906 L 676.847656 313.878906 L 676.847656 301.574219 L 689.152344 301.574219 L 689.152344 313.878906 L 676.847656 313.878906 L 676.847656 326.183594 L 664.542969 326.183594 L 664.542969 313.878906 L 652.238281 313.878906 L 652.238281 326.183594 L 664.542969 326.183594 L 664.542969 338.488281 L 652.238281 338.488281 L 652.238281 350.792969 L 664.542969 350.792969 L 664.542969 363.097656 L 676.847656 363.097656 L 676.847656 350.792969 L 689.152344 350.792969 L 689.152344 363.097656 L 676.847656 363.097656 L 676.847656 375.402344 L 664.542969 375.402344 L 664.542969 363.097656 L 652.238281 363.097656 L 652.238281 375.402344 L 639.933594 375.402344 L 639.933594 363.097656 L 652.238281 363.097656 L 652.238281 350.792969 L 639.933594 350.792969 L 639.933594 338.488281 L 627.628906 338.488281 L 627.628906 350.792969 L 639.933594 350.792969 L 639.933594 363.097656 L 627.628906 363.097656 L 627.628906 375.402344 L 615.324219 375.402344 L 615.324219 363.097656 L 603.019531 363.097656 L 603.019531 375.402344 L 615.324219 375.402344 L 615.324219 387.707031 L 603.019531 387.707031 L 603.019531 400.011719 L 615.324219 400.011719 L 615.324219 412.316406 L 627.628906 412.316406 L 627.628906 400.011719 L 615.324219 400.011719 L 615.324219 387.707031 L 627.628906 387.707031 L 627.628906 375.402344 L 639.933594 375.402344 L 639.933594 387.707031 L 652.238281 387.707031 L 652.238281 375.402344 L 664.542969 375.402344 L 664.542969 387.707031 L 652.238281 387.707031 L 652.238281 400.011719 L 664.542969 400.011719 L 664.542969 412.316406 L 676.847656 412.316406 L 676.847656 400.011719 L 689.152344 400.011719 L 689.152344 412.316406 L 676.847656 412.316406 L 676.847656 424.621094 L 664.542969 424.621094 L 664.542969 412.316406 L 652.238281 412.316406 L 652.238281 424.621094 L 664.542969 424.621094 L 664.542969 436.925781 L 652.238281 436.925781 L 652.238281 449.230469 L 664.542969 449.230469 L 664.542969 461.535156 L 676.847656 461.535156 L 676.847656 449.230469 L 664.542969 449.230469 L 664.542969 436.925781 L 676.847656 436.925781 L 676.847656 424.621094 L 689.152344 424.621094 L 689.152344 436.925781 L 701.457031 436.925781 L 701.457031 424.621094 L 713.761719 424.621094 L 713.761719 436.925781 L 701.457031 436.925781 L 701.457031 449.230469 L 713.761719 449.230469 L 713.761719 461.535156 L 726.066406 461.535156 L 726.066406 449.230469 L 713.761719 449.230469 L 713.761719 436.925781 L 726.066406 436.925781 L 726.066406 424.621094 L 738.371094 424.621094 L 738.371094 436.925781 L 750.675781 436.925781 L 750.675781 424.621094 L 738.371094 424.621094 L 738.371094 412.316406 L 750.675781 412.316406 L 750.675781 400.011719 L 738.371094 400.011719 L 738.371094 387.707031 L 726.066406 387.707031 L 726.066406 400.011719 L 713.761719 400.011719 L 713.761719 387.707031 L 726.066406 387.707031 L 726.066406 375.402344 L 738.371094 375.402344 L 738.371094 387.707031 L 750.675781 387.707031 L 750.675781 375.402344 L 762.980469 375.402344 L 762.980469 387.707031 L 750.675781 387.707031 L 750.675781 400.011719 L 762.980469 400.011719 L 762.980469 412.316406 L 775.285156 412.316406 L 775.285156 400.011719 L 787.589844 400.011719 L 787.589844 412.316406 L 775.285156 412.316406 L 775.285156 424.621094 L 762.980469 424.621094 L 762.980469 412.316406 L 750.675781 412.316406 L 750.675781 424.621094 L 762.980469 424.621094 L 762.980469 436.925781 L 750.675781 436.925781 L 750.675781 449.230469 L 762.980469 449.230469 L 762.980469 461.535156 L 775.285156 461.535156 L 775.285156 449.230469 L 787.589844 449.230469 L 787.589844 461.535156 L 775.285156 461.535156 L 775.285156 473.839844 L 762.980469 473.839844 L 762.980469 461.535156 L 750.675781 461.535156 L 750.675781 473.839844 L 738.371094 473.839844 L 738.371094 461.535156 L 750.675781 461.535156 L 750.675781 449.230469 L 738.371094 449.230469 L 738.371094 436.925781 L 726.066406 436.925781 L 726.066406 449.230469 L 738.371094 449.230469 L 738.371094 461.535156 L 726.066406 461.535156 L 726.066406 473.839844 L 713.761719 473.839844 L 713.761719 461.535156 L 701.457031 461.535156 L 701.457031 473.839844 L 713.761719 473.839844 L 713.761719 486.144531 L 701.457031 486.144531 L 701.457031 498.449219 L 713.761719 498.449219 L 713.761719 510.753906 L 726.066406 510.753906 L 726.066406 498.449219 L 738.371094 498.449219 L 738.371094 510.753906 L 726.066406 510.753906 L 726.066406 523.058594 L 713.761719 523.058594 L 713.761719 510.753906 L 701.457031 510.753906 L 701.457031 523.058594 L 689.152344 523.058594 L 689.152344 510.753906 L 701.457031 510.753906 L 701.457031 498.449219 L 689.152344 498.449219 L 689.152344 486.144531 L 676.847656 486.144531 L 676.847656 498.449219 L 664.542969 498.449219 L 664.542969 486.144531 L 676.847656 486.144531 L 676.847656 473.839844 L 689.152344 473.839844 L 689.152344 486.144531 L 701.457031 486.144531 L 701.457031 473.839844 L 689.152344 473.839844 L 689.152344 461.535156 L 701.457031 461.535156 L 701.457031 449.230469 L 689.152344 449.230469 L 689.152344 436.925781 L 676.847656 436.925781 L 676.847656 449.230469 L 689.152344 449.230469 L 689.152344 461.535156 L 676.847656 461.535156 L 676.847656 473.839844 L 664.542969 473.839844 L 664.542969 461.535156 L 652.238281 461.535156 L 652.238281 473.839844 L 639.933594 473.839844 L 639.933594 461.535156 L 652.238281 461.535156 L 652.238281 449.230469 L 639.933594 449.230469 L 639.933594 436.925781 L 627.628906 436.925781 L 627.628906 449.230469 L 639.933594 449.230469 L 639.933594 461.535156 L 627.628906 461.535156 L 627.628906 473.839844 L 615.324219 473.839844 L 615.324219 461.535156 L 603.019531 461.535156 L 603.019531 473.839844 L 615.324219 473.839844 L 615.324219 486.144531 L 603.019531 486.144531 L 603.019531 498.449219 L 615.324219 498.449219 L 615.324219 510.753906 L 627.628906 510.753906 L 627.628906 498.449219 L 639.933594 498.449219 L 639.933594 510.753906 L 627.628906 510.753906 L 627.628906 523.058594 L 615.324219 523.058594 L 615.324219 510.753906 L 603.019531 510.753906 L 603.019531 523.058594 L 590.714844 523.058594 L 590.714844 510.753906 L 603.019531 510.753906 L 603.019531 498.449219 L 590.714844 498.449219 L 590.714844 486.144531 L 578.410156 486.144531 L 578.410156 498.449219 L 566.105469 498.449219 L 566.105469 486.144531 L 578.410156 486.144531 L 578.410156 473.839844 L 590.714844 473.839844 L 590.714844 486.144531 L 603.019531 486.144531 L 603.019531 473.839844 L 590.714844 473.839844 L 590.714844 461.535156 L 603.019531 461.535156 L 603.019531 449.230469 L 590.714844 449.230469 L 590.714844 436.925781 L 578.410156 436.925781 L 578.410156 449.230469 L 566.105469 449.230469 L 566.105469 436.925781 L 578.410156 436.925781 L 578.410156 424.621094 L 590.714844 424.621094 L 590.714844 436.925781 L 603.019531 436.925781 L 603.019531 424.621094 L 615.324219 424.621094 L 615.324219 436.925781 L 603.019531 436.925781 L 603.019531 449.230469 L 615.324219 449.230469 L 615.324219 461.535156 L 627.628906 461.535156 L 627.628906 449.230469 L 615.324219 449.230469 L 615.324219 436.925781 L 627.628906 436.925781 L 627.628906 424.621094 L 639.933594 424.621094 L 639.933594 436.925781 L 652.238281 436.925781 L 652.238281 424.621094 L 639.933594 424.621094 L 639.933594 412.316406 L 652.238281 412.316406 L 652.238281 400.011719 L 639.933594 400.011719 L 639.933594 387.707031 L 627.628906 387.707031 L 627.628906 400.011719 L 639.933594 400.011719 L 639.933594 412.316406 L 627.628906 412.316406 L 627.628906 424.621094 L 615.324219 424.621094 L 615.324219 412.316406 L 603.019531 412.316406 L 603.019531 424.621094 L 590.714844 424.621094 L 590.714844 412.316406 L 603.019531 412.316406 L 603.019531 400.011719 L 590.714844 400.011719 L 590.714844 387.707031 L 578.410156 387.707031 L 578.410156 400.011719 L 566.105469 400.011719 L 566.105469 387.707031 L 578.410156 387.707031 L 578.410156 375.402344 L 590.714844 375.402344 L 590.714844 387.707031 L 603.019531 387.707031 L 603.019531 375.402344 L 590.714844 375.402344 L 590.714844 363.097656 L 603.019531 363.097656 L 603.019531 350.792969 L 590.714844 350.792969 L 590.714844 338.488281 L 578.410156 338.488281 L 578.410156 350.792969 L 590.714844 350.792969 L 590.714844 363.097656 L 578.410156 363.097656 L 578.410156 375.402344 L 566.105469 375.402344 L 566.105469 363.097656 L 553.800781 363.097656 L 553.800781 375.402344 L 541.496094 375.402344 L 541.496094 363.097656 L 553.800781 363.097656 L 553.800781 350.792969 L 541.496094 350.792969 L 541.496094 338.488281 L 529.191406 338.488281 L 529.191406 350.792969 L 541.496094 350.792969 L 541.496094 363.097656 L 529.191406 363.097656 L 529.191406 375.402344 L 516.886719 375.402344 L 516.886719 363.097656 L 504.582031 363.097656 L 504.582031 375.402344 L 516.886719 375.402344 L 516.886719 387.707031 L 504.582031 387.707031 L 504.582031 400.011719 L 516.886719 400.011719 L 516.886719 412.316406 L 529.191406 412.316406 L 529.191406 400.011719 L 516.886719 400.011719 L 516.886719 387.707031 L 529.191406 387.707031 L 529.191406 375.402344 L 541.496094 375.402344 L 541.496094 387.707031 L 553.800781 387.707031 L 553.800781 375.402344 L 566.105469 375.402344 L 566.105469 387.707031 L 553.800781 387.707031 L 553.800781 400.011719 L 566.105469 400.011719 L 566.105469 412.316406 L 578.410156 412.316406 L 578.410156 400.011719 L 590.714844 400.011719 L 590.714844 412.316406 L 578.410156 412.316406 L 578.410156 424.621094 L 566.105469 424.621094 L 566.105469 412.316406 L 553.800781 412.316406 L 553.800781 424.621094 L 566.105469 424.621094 L 566.105469 436.925781 L 553.800781 436.925781 L 553.800781 449.230469 L 566.105469 449.230469 L 566.105469 461.535156 L 578.410156 461.535156 L 578.410156 449.230469 L 590.714844 449.230469 L 590.714844 461.535156 L 578.410156 461.535156 L 578.410156 473.839844 L 566.105469 473.839844 L 566.105469 461.535156 L 553.800781 461.535156 L 553.800781 473.839844 L 541.496094 473.839844 L 541.496094 461.535156 L 553.800781 461.535156 L 553.800781 449.230469 L 541.496094 449.230469 L 541.496094 436.925781 L 529.191406 436.925781 L 529.191406 449.230469 L 541.496094 449.230469 L 541.496094 461.535156 L 529.191406 461.535156 L 529.191406 473.839844 L 516.886719 473.839844 L 516.886719 461.535156 L 504.582031 461.535156 L 504.582031 473.839844 L 516.886719 473.839844 L 516.886719 486.144531 L 504.582031 486.144531 L 504.582031 498.449219 L 516.886719 498.449219 L 516.886719 510.753906 L 529.191406 510.753906 L 529.191406 498.449219 L 541.496094 498.449219 L 541.496094 510.753906 L 529.191406 510.753906 L 529.191406 523.058594 L 516.886719 523.058594 L 516.886719 510.753906 L 504.582031 510.753906 L 504.582031 523.058594 L 492.277344 523.058594 L 492.277344 510.753906 L 504.582031 510.753906 L 504.582031 498.449219 L 492.277344 498.449219 L 492.277344 486.144531 L 479.972656 486.144531 L 479.972656 498.449219 L 467.667969 498.449219 L 467.667969 486.144531 L 479.972656 486.144531 L 479.972656 473.839844 L 492.277344 473.839844 L 492.277344 486.144531 L 504.582031 486.144531 L 504.582031 473.839844 L 492.277344 473.839844 L 492.277344 461.535156 L 504.582031 461.535156 L 504.582031 449.230469 L 492.277344 449.230469 L 492.277344 436.925781 L 479.972656 436.925781 L 479.972656 449.230469 L 492.277344 449.230469 L 492.277344 461.535156 L 479.972656 461.535156 L 479.972656 473.839844 L 467.667969 473.839844 L 467.667969 461.535156 L 455.363281 461.535156 L 455.363281 473.839844 L 443.058594 473.839844 L 443.058594 461.535156 L 455.363281 461.535156 L 455.363281 449.230469 L 443.058594 449.230469 L 443.058594 436.925781 L 430.753906 436.925781 L 430.753906 449.230469 L 443.058594 449.230469 L 443.058594 461.535156 L 430.753906 461.535156 L 430.753906 473.839844 L 418.449219 473.839844 L 418.449219 461.535156 L 406.144531 461.535156 L 406.144531 473.839844 L 418.449219 473.839844 L 418.449219 486.144531 L 406.144531 486.144531 L 406.144531 498.449219 L 418.449219 498.449219 L 418.449219 510.753906 L 430.753906 510.753906 L 430.753906 498.449219 L 418.449219 498.449219 L 418.449219 486.144531 L 430.753906 486.144531 L 430.753906 473.839844 L 443.058594 473.839844 L 443.058594 486.144531 L 455.363281 486.144531 L 455.363281 473.839844 L 467.667969 473.839844 L 467.667969 486.144531 L 455.363281 486.144531 L 455.363281 498.449219 L 467.667969 498.449219 L 467.667969 510.753906 L 479.972656 510.753906 L 479.972656 498.449219 L 492.277344 498.449219 L 492.277344 510.753906 L 479.972656 510.753906 L 479.972656 523.058594 L 467.667969 523.058594 L 467.667969 510.753906 L 455.363281 510.753906 L 455.363281 523.058594 L 467.667969 523.058594 L 467.667969 535.363281 L 455.363281 535.363281 L 455.363281 547.667969 L 467.667969 547.667969 L 467.667969 559.972656 L 479.972656 559.972656 L 479.972656 547.667969 L 492.277344 547.667969 L 492.277344 559.972656 L 479.972656 559.972656 L 479.972656 572.277344 L 467.667969 572.277344 L 467.667969 559.972656 L 455.363281 559.972656 L 455.363281 572.277344 L 443.058594 572.277344 L 443.058594 559.972656 L 455.363281 559.972656 L 455.363281 547.667969 L 443.058594 547.667969 L 443.058594 535.363281 L 430.753906 535.363281 L 430.753906 547.667969 L 443.058594 547.667969 L 443.058594 559.972656 L 430.753906 559.972656 L 430.753906 572.277344 L 418.449219 572.277344 L 418.449219 559.972656 L 406.144531 559.972656 L 406.144531 572.277344 L 418.449219 572.277344 L 418.449219 584.582031 L 406.144531 584.582031 L 406.144531 596.886719 L 418.449219 596.886719 L 418.449219 609.191406 L 430.753906 609.191406 L 430.753906 596.886719 L 418.449219 596.886719 L 418.449219 584.582031 L 430.753906 584.582031 L 430.753906 572.277344 L 443.058594 572.277344 L 443.058594 584.582031 L 455.363281 584.582031 L 455.363281 572.277344 L 467.667969 572.277344 L 467.667969 584.582031 L 455.363281 584.582031 L 455.363281 596.886719 L 467.667969 596.886719 L 467.667969 609.191406 L 479.972656 609.191406 L 479.972656 596.886719 L 492.277344 596.886719 L 492.277344 609.191406 L 479.972656 609.191406 L 479.972656 621.496094 L 467.667969 621.496094 L 467.667969 609.191406 L 455.363281 609.191406 L 455.363281 621.496094 L 467.667969 621.496094 L 467.667969 633.800781 L 455.363281 633.800781 L 455.363281 646.105469 L 467.667969 646.105469 L 467.667969 658.410156 L 479.972656 658.410156 L 479.972656 646.105469 L 467.667969 646.105469 L 467.667969 633.800781 L 479.972656 633.800781 L 479.972656 621.496094 L 492.277344 621.496094 L 492.277344 633.800781 L 504.582031 633.800781 L 504.582031 621.496094 L 516.886719 621.496094 L 516.886719 633.800781 L 504.582031 633.800781 L 504.582031 646.105469 L 516.886719 646.105469 L 516.886719 658.410156 L 529.191406 658.410156 L 529.191406 646.105469 L 516.886719 646.105469 L 516.886719 633.800781 L 529.191406 633.800781 L 529.191406 621.496094 L 541.496094 621.496094 L 541.496094 633.800781 L 553.800781 633.800781 L 553.800781 621.496094 L 541.496094 621.496094 L 541.496094 609.191406 L 553.800781 609.191406 L 553.800781 596.886719 L 541.496094 596.886719 L 541.496094 584.582031 L 529.191406 584.582031 L 529.191406 596.886719 L 516.886719 596.886719 L 516.886719 584.582031 L 529.191406 584.582031 L 529.191406 572.277344 L 541.496094 572.277344 L 541.496094 584.582031 L 553.800781 584.582031 L 553.800781 572.277344 L 566.105469 572.277344 L 566.105469 584.582031 L 553.800781 584.582031 L 553.800781 596.886719 L 566.105469 596.886719 L 566.105469 609.191406 L 578.410156 609.191406 L 578.410156 596.886719 L 590.714844 596.886719 L 590.714844 609.191406 L 578.410156 609.191406 L 578.410156 621.496094 L 566.105469 621.496094 L 566.105469 609.191406 L 553.800781 609.191406 L 553.800781 621.496094 L 566.105469 621.496094 L 566.105469 633.800781 L 553.800781 633.800781 L 553.800781 646.105469 L 566.105469 646.105469 L 566.105469 658.410156 L 578.410156 658.410156 L 578.410156 646.105469 L 590.714844 646.105469 L 590.714844 658.410156 L 578.410156 658.410156 L 578.410156 670.714844 L 566.105469 670.714844 L 566.105469 658.410156 L 553.800781 658.410156 L 553.800781 670.714844 L 541.496094 670.714844 L 541.496094 658.410156 L 553.800781 658.410156 L 553.800781 646.105469 L 541.496094 646.105469 L 541.496094 633.800781 L 529.191406 633.800781 L 529.191406 646.105469 L 541.496094 646.105469 L 541.496094 658.410156 L 529.191406 658.410156 L 529.191406 670.714844 L 516.886719 670.714844 L 516.886719 658.410156 L 504.582031 658.410156 L 504.582031 670.714844 L 516.886719 670.714844 L 516.886719 683.019531 L 504.582031 683.019531 L 504.582031 695.324219 L 516.886719 695.324219 L 516.886719 707.628906 L 529.191406 707.628906 L 529.191406 695.324219 L 541.496094 695.324219 L 541.496094 707.628906 L 529.191406 707.628906 L 529.191406 719.933594 L 516.886719 719.933594 L 516.886719 707.628906 L 504.582031 707.628906 L 504.582031 719.933594 L 492.277344 719.933594 L 492.277344 707.628906 L 504.582031 707.628906 L 504.582031 695.324219 L 492.277344 695.324219 L 492.277344 683.019531 L 479.972656 683.019531 L 479.972656 695.324219 L 467.667969 695.324219 L 467.667969 683.019531 L 479.972656 683.019531 L 479.972656 670.714844 L 492.277344 670.714844 L 492.277344 683.019531 L 504.582031 683.019531 L 504.582031 670.714844 L 492.277344 670.714844 L 492.277344 658.410156 L 504.582031 658.410156 L 504.582031 646.105469 L 492.277344 646.105469 L 492.277344 633.800781 L 479.972656 633.800781 L 479.972656 646.105469 L 492.277344 646.105469 L 492.277344 658.410156 L 479.972656 658.410156 L 479.972656 670.714844 L 467.667969 670.714844 L 467.667969 658.410156 L 455.363281 658.410156 L 455.363281 670.714844 L 443.058594 670.714844 L 443.058594 658.410156 L 455.363281 658.410156 L 455.363281 646.105469 L 443.058594 646.105469 L 443.058594 633.800781 L 430.753906 633.800781 L 430.753906 646.105469 L 443.058594 646.105469 L 443.058594 658.410156 L 430.753906 658.410156 L 430.753906 670.714844 L 418.449219 670.714844 L 418.449219 658.410156 L 406.144531 658.410156 L 406.144531 670.714844 L 418.449219 670.714844 L 418.449219 683.019531 L 406.144531 683.019531 L 406.144531 695.324219 L 418.449219 695.324219 L 418.449219 707.628906 L 430.753906 707.628906 L 430.753906 695.324219 L 443.058594 695.324219 L 443.058594 707.628906 L 430.753906 707.628906 L 430.753906 719.933594 L 418.449219 719.933594 L 418.449219 707.628906 L 406.144531 707.628906 L 406.144531 719.933594 L 393.839844 719.933594 L 393.839844 707.628906 L 406.144531 707.628906 L 406.144531 695.324219 L 393.839844 695.324219 L 393.839844 683.019531 L 381.535156 683.019531 L 381.535156 695.324219 L 369.230469 695.324219 L 369.230469 683.019531 L 381.535156 683.019531 L 381.535156 670.714844 L 393.839844 670.714844 L 393.839844 683.019531 L 406.144531 683.019531 L 406.144531 670.714844 L 393.839844 670.714844 L 393.839844 658.410156 L 406.144531 658.410156 L 406.144531 646.105469 L 393.839844 646.105469 L 393.839844 633.800781 L 381.535156 633.800781 L 381.535156 646.105469 L 369.230469 646.105469 L 369.230469 633.800781 L 381.535156 633.800781 L 381.535156 621.496094 L 393.839844 621.496094 L 393.839844 633.800781 L 406.144531 633.800781 L 406.144531 621.496094 L 418.449219 621.496094 L 418.449219 633.800781 L 406.144531 633.800781 L 406.144531 646.105469 L 418.449219 646.105469 L 418.449219 658.410156 L 430.753906 658.410156 L 430.753906 646.105469 L 418.449219 646.105469 L 418.449219 633.800781 L 430.753906 633.800781 L 430.753906 621.496094 L 443.058594 621.496094 L 443.058594 633.800781 L 455.363281 633.800781 L 455.363281 621.496094 L 443.058594 621.496094 L 443.058594 609.191406 L 455.363281 609.191406 L 455.363281 596.886719 L 443.058594 596.886719 L 443.058594 584.582031 L 430.753906 584.582031 L 430.753906 596.886719 L 443.058594 596.886719 L 443.058594 609.191406 L 430.753906 609.191406 L 430.753906 621.496094 L 418.449219 621.496094 L 418.449219 609.191406 L 406.144531 609.191406 L 406.144531 621.496094 L 393.839844 621.496094 L 393.839844 609.191406 L 406.144531 609.191406 L 406.144531 596.886719 L 393.839844 596.886719 L 393.839844 584.582031 L 381.535156 584.582031 L 381.535156 596.886719 L 369.230469 596.886719 L 369.230469 584.582031 L 381.535156 584.582031 L 381.535156 572.277344 L 393.839844 572.277344 L 393.839844 584.582031 L 406.144531 584.582031 L 406.144531 572.277344 L 393.839844 572.277344 L 393.839844 559.972656 L 406.144531 559.972656 L 406.144531 547.667969 L 393.839844 547.667969 L 393.839844 535.363281 L 381.535156 535.363281 L 381.535156 547.667969 L 393.839844 547.667969 L 393.839844 559.972656 L 381.535156 559.972656 L 381.535156 572.277344 L 369.230469 572.277344 L 369.230469 559.972656 L 356.925781 559.972656 L 356.925781 572.277344 L 344.621094 572.277344 L 344.621094 559.972656 L 356.925781 559.972656 L 356.925781 547.667969 L 344.621094 547.667969 L 344.621094 535.363281 L 332.316406 535.363281 L 332.316406 547.667969 L 344.621094 547.667969 L 344.621094 559.972656 L 332.316406 559.972656 L 332.316406 572.277344 L 320.011719 572.277344 L 320.011719 559.972656 L 307.707031 559.972656 L 307.707031 572.277344 L 320.011719 572.277344 L 320.011719 584.582031 L 307.707031 584.582031 L 307.707031 596.886719 L 320.011719 596.886719 L 320.011719 609.191406 L 332.316406 609.191406 L 332.316406 596.886719 L 344.621094 596.886719 L 344.621094 609.191406 L 332.316406 609.191406 L 332.316406 621.496094 L 320.011719 621.496094 L 320.011719 609.191406 L 307.707031 609.191406 L 307.707031 621.496094 L 295.402344 621.496094 L 295.402344 609.191406 L 307.707031 609.191406 L 307.707031 596.886719 L 295.402344 596.886719 L 295.402344 584.582031 L 283.097656 584.582031 L 283.097656 596.886719 L 270.792969 596.886719 L 270.792969 584.582031 L 283.097656 584.582031 L 283.097656 572.277344 L 295.402344 572.277344 L 295.402344 584.582031 L 307.707031 584.582031 L 307.707031 572.277344 L 295.402344 572.277344 L 295.402344 559.972656 L 307.707031 559.972656 L 307.707031 547.667969 L 295.402344 547.667969 L 295.402344 535.363281 L 283.097656 535.363281 L 283.097656 547.667969 L 270.792969 547.667969 L 270.792969 535.363281 L 283.097656 535.363281 L 283.097656 523.058594 L 295.402344 523.058594 L 295.402344 535.363281 L 307.707031 535.363281 L 307.707031 523.058594 L 320.011719 523.058594 L 320.011719 535.363281 L 307.707031 535.363281 L 307.707031 547.667969 L 320.011719 547.667969 L 320.011719 559.972656 L 332.316406 559.972656 L 332.316406 547.667969 L 320.011719 547.667969 L 320.011719 535.363281 L 332.316406 535.363281 L 332.316406 523.058594 L 344.621094 523.058594 L 344.621094 535.363281 L 356.925781 535.363281 L 356.925781 523.058594 L 344.621094 523.058594 L 344.621094 510.753906 L 356.925781 510.753906 L 356.925781 498.449219 L 344.621094 498.449219 L 344.621094 486.144531 L 332.316406 486.144531 L 332.316406 498.449219 L 320.011719 498.449219 L 320.011719 486.144531 L 332.316406 486.144531 L 332.316406 473.839844 L 344.621094 473.839844 L 344.621094 486.144531 L 356.925781 486.144531 L 356.925781 473.839844 L 369.230469 473.839844 L 369.230469 486.144531 L 356.925781 486.144531 L 356.925781 498.449219 L 369.230469 498.449219 L 369.230469 510.753906 L 381.535156 510.753906 L 381.535156 498.449219 L 393.839844 498.449219 L 393.839844 510.753906 L 381.535156 510.753906 L 381.535156 523.058594 L 369.230469 523.058594 L 369.230469 510.753906 L 356.925781 510.753906 L 356.925781 523.058594 L 369.230469 523.058594 L 369.230469 535.363281 L 356.925781 535.363281 L 356.925781 547.667969 L 369.230469 547.667969 L 369.230469 559.972656 L 381.535156 559.972656 L 381.535156 547.667969 L 369.230469 547.667969 L 369.230469 535.363281 L 381.535156 535.363281 L 381.535156 523.058594 L 393.839844 523.058594 L 393.839844 535.363281 L 406.144531 535.363281 L 406.144531 523.058594 L 418.449219 523.058594 L 418.449219 535.363281 L 406.144531 535.363281 L 406.144531 547.667969 L 418.449219 547.667969 L 418.449219 559.972656 L 430.753906 559.972656 L 430.753906 547.667969 L 418.449219 547.667969 L 418.449219 535.363281 L 430.753906 535.363281 L 430.753906 523.058594 L 443.058594 523.058594 L 443.058594 535.363281 L 455.363281 535.363281 L 455.363281 523.058594 L 443.058594 523.058594 L 443.058594 510.753906 L 455.363281 510.753906 L 455.363281 498.449219 L 443.058594 498.449219 L 443.058594 486.144531 L 430.753906 486.144531 L 430.753906 498.449219 L 443.058594 498.449219 L 443.058594 510.753906 L 430.753906 510.753906 L 430.753906 523.058594 L 418.449219 523.058594 L 418.449219 510.753906 L 406.144531 510.753906 L 406.144531 523.058594 L 393.839844 523.058594 L 393.839844 510.753906 L 406.144531 510.753906 L 406.144531 498.449219 L 393.839844 498.449219 L 393.839844 486.144531 L 381.535156 486.144531 L 381.535156 498.449219 L 369.230469 498.449219 L 369.230469 486.144531 L 381.535156 486.144531 L 381.535156 473.839844 L 393.839844 473.839844 L 393.839844 486.144531 L 406.144531 486.144531 L 406.144531 473.839844 L 393.839844 473.839844 L 393.839844 461.535156 L 406.144531 461.535156 L 406.144531 449.230469 L 393.839844 449.230469 L 393.839844 436.925781 L 381.535156 436.925781 L 381.535156 449.230469 L 369.230469 449.230469 L 369.230469 436.925781 L 381.535156 436.925781 L 381.535156 424.621094 L 393.839844 424.621094 L 393.839844 436.925781 L 406.144531 436.925781 L 406.144531 424.621094 L 418.449219 424.621094 L 418.449219 436.925781 L 406.144531 436.925781 L 406.144531 449.230469 L 418.449219 449.230469 L 418.449219 461.535156 L 430.753906 461.535156 L 430.753906 449.230469 L 418.449219 449.230469 L 418.449219 436.925781 L 430.753906 436.925781 L 430.753906 424.621094 L 443.058594 424.621094 L 443.058594 436.925781 L 455.363281 436.925781 L 455.363281 424.621094 L 443.058594 424.621094 L 443.058594 412.316406 L 455.363281 412.316406 L 455.363281 400.011719 L 443.058594 400.011719 L 443.058594 387.707031 L 430.753906 387.707031 L 430.753906 400.011719 L 443.058594 400.011719 L 443.058594 412.316406 L 430.753906 412.316406 L 430.753906 424.621094 L 418.449219 424.621094 L 418.449219 412.316406 L 406.144531 412.316406 L 406.144531 424.621094 L 393.839844 424.621094 L 393.839844 412.316406 L 406.144531 412.316406 L 406.144531 400.011719 L 393.839844 400.011719 L 393.839844 387.707031 L 381.535156 387.707031 L 381.535156 400.011719 L 369.230469 400.011719 L 369.230469 387.707031 L 381.535156 387.707031 L 381.535156 375.402344 L 393.839844 375.402344 L 393.839844 387.707031 L 406.144531 387.707031 L 406.144531 375.402344 L 393.839844 375.402344 L 393.839844 363.097656 L 406.144531 363.097656 L 406.144531 350.792969 L 393.839844 350.792969 L 393.839844 338.488281 L 381.535156 338.488281 L 381.535156 350.792969 L 393.839844 350.792969 L 393.839844 363.097656 L 381.535156 363.097656 L 381.535156 375.402344 L 369.230469 375.402344 L 369.230469 363.097656 L 356.925781 363.097656 L 356.925781 375.402344 L 344.621094 375.402344 L 344.621094 363.097656 L 356.925781 363.097656 L 356.925781 350.792969 L 344.621094 350.792969 L 344.621094 338.488281 L 332.316406 338.488281 L 332.316406 350.792969 L 344.621094 350.792969 L 344.621094 363.097656 L 332.316406 363.097656 L 332.316406 375.402344 L 320.011719 375.402344 L 320.011719 363.097656 L 307.707031 363.097656 L 307.707031 375.402344 L 320.011719 375.402344 L 320.011719 387.707031 L 307.707031 387.707031 L 307.707031 400.011719 L 320.011719 400.011719 L 320.011719 412.316406 L 332.316406 412.316406 L 332.316406 400.011719 L 320.011719 400.011719 L 320.011719 387.707031 L 332.316406 387.707031 L 332.316406 375.402344 L 344.621094 375.402344 L 344.621094 387.707031 L 356.925781 387.707031 L 356.925781 375.402344 L 369.230469 375.402344 L 369.230469 387.707031 L 356.925781 387.707031 L 356.925781 400.011719 L 369.230469 400.011719 L 369.230469 412.316406 L 381.535156 412.316406 L 381.535156 400.011719 L 393.839844 400.011719 L 393.839844 412.316406 L 381.535156 412.316406 L 381.535156 424.621094 L 369.230469 424.621094 L 369.230469 412.316406 L 356.925781 412.316406 L 356.925781 424.621094 L 369.230469 424.621094 L 369.230469 436.925781 L 356.925781 436.925781 L 356.925781 449.230469 L 369.230469 449.230469 L 369.230469 461.535156 L 381.535156 461.535156 L 381.535156 449.230469 L 393.839844 449.230469 L 393.839844 461.535156 L 381.535156 461.535156 L 381.535156 473.839844 L 369.230469 473.839844 L 369.230469 461.535156 L 356.925781 461.535156 L 356.925781 473.839844 L 344.621094 473.839844 L 344.621094 461.535156 L 356.925781 461.535156 L 356.925781 449.230469 L 344.621094 449.230469 L 344.621094 436.925781 L 332.316406 436.925781 L 332.316406 449.230469 L 344.621094 449.230469 L 344.621094 461.535156 L 332.316406 461.535156 L 332.316406 473.839844 L 320.011719 473.839844 L 320.011719 461.535156 L 307.707031 461.535156 L 307.707031 473.839844 L 320.011719 473.839844 L 320.011719 486.144531 L 307.707031 486.144531 L 307.707031 498.449219 L 320.011719 498.449219 L 320.011719 510.753906 L 332.316406 510.753906 L 332.316406 498.449219 L 344.621094 498.449219 L 344.621094 510.753906 L 332.316406 510.753906 L 332.316406 523.058594 L 320.011719 523.058594 L 320.011719 510.753906 L 307.707031 510.753906 L 307.707031 523.058594 L 295.402344 523.058594 L 295.402344 510.753906 L 307.707031 510.753906 L 307.707031 498.449219 L 295.402344 498.449219 L 295.402344 486.144531 L 283.097656 486.144531 L 283.097656 498.449219 L 270.792969 498.449219 L 270.792969 486.144531 L 283.097656 486.144531 L 283.097656 473.839844 L 295.402344 473.839844 L 295.402344 486.144531 L 307.707031 486.144531 L 307.707031 473.839844 L 295.402344 473.839844 L 295.402344 461.535156 L 307.707031 461.535156 L 307.707031 449.230469 L 295.402344 449.230469 L 295.402344 436.925781 L 283.097656 436.925781 L 283.097656 449.230469 L 295.402344 449.230469 L 295.402344 461.535156 L 283.097656 461.535156 L 283.097656 473.839844 L 270.792969 473.839844 L 270.792969 461.535156 L 258.488281 461.535156 L 258.488281 473.839844 L 246.183594 473.839844 L 246.183594 461.535156 L 258.488281 461.535156 L 258.488281 449.230469 L 246.183594 449.230469 L 246.183594 436.925781 L 233.878906 436.925781 L 233.878906 449.230469 L 246.183594 449.230469 L 246.183594 461.535156 L 233.878906 461.535156 L 233.878906 473.839844 L 221.574219 473.839844 L 221.574219 461.535156 L 209.269531 461.535156 L 209.269531 473.839844 L 221.574219 473.839844 L 221.574219 486.144531 L 209.269531 486.144531 L 209.269531 498.449219 L 221.574219 498.449219 L 221.574219 510.753906 L 233.878906 510.753906 L 233.878906 498.449219 L 246.183594 498.449219 L 246.183594 510.753906 L 233.878906 510.753906 L 233.878906 523.058594 L 221.574219 523.058594 L 221.574219 510.753906 L 209.269531 510.753906 L 209.269531 523.058594 L 196.964844 523.058594 L 196.964844 510.753906 L 209.269531 510.753906 L 209.269531 498.449219 L 196.964844 498.449219 L 196.964844 486.144531 L 184.660156 486.144531 L 184.660156 498.449219 L 172.355469 498.449219 L 172.355469 486.144531 L 184.660156 486.144531 L 184.660156 473.839844 L 196.964844 473.839844 L 196.964844 486.144531 L 209.269531 486.144531 L 209.269531 473.839844 L 196.964844 473.839844 L 196.964844 461.535156 L 209.269531 461.535156 L 209.269531 449.230469 L 196.964844 449.230469 L 196.964844 436.925781 L 184.660156 436.925781 L 184.660156 449.230469 L 172.355469 449.230469 L 172.355469 436.925781 L 184.660156 436.925781 L 184.660156 424.621094 L 196.964844 424.621094 L 196.964844 436.925781 L 209.269531 436.925781 L 209.269531 424.621094 L 221.574219 424.621094 L 221.574219 436.925781 L 209.269531 436.925781 L 209.269531 449.230469 L 221.574219 449.230469 L 221.574219 461.535156 L 233.878906 461.535156 L 233.878906 449.230469 L 221.574219 449.230469 L 221.574219 436.925781 L 233.878906 436.925781 L 233.878906 424.621094 L 246.183594 424.621094 L 246.183594 436.925781 L 258.488281 436.925781 L 258.488281 424.621094 L 246.183594 424.621094 L 246.183594 412.316406 L 258.488281 412.316406 L 258.488281 400.011719 L 246.183594 400.011719 L 246.183594 387.707031 L 233.878906 387.707031 L 233.878906 400.011719 L 246.183594 400.011719 L 246.183594 412.316406 L 233.878906 412.316406 L 233.878906 424.621094 L 221.574219 424.621094 L 221.574219 412.316406 L 209.269531 412.316406 L 209.269531 424.621094 L 196.964844 424.621094 L 196.964844 412.316406 L 209.269531 412.316406 L 209.269531 400.011719 L 196.964844 400.011719 L 196.964844 387.707031 L 184.660156 387.707031 L 184.660156 400.011719 L 172.355469 400.011719 L 172.355469 387.707031 L 184.660156 387.707031 L 184.660156 375.402344 L 196.964844 375.402344 L 196.964844 387.707031 L 209.269531 387.707031 L 209.269531 375.402344 L 196.964844 375.402344 L 196.964844 363.097656 L 209.269531 363.097656 L 209.269531 350.792969 L 196.964844 350.792969 L 196.964844 338.488281 L 184.660156 338.488281 L 184.660156 350.792969 L 196.964844 350.792969 L 196.964844 363.097656 L 184.660156 363.097656 L 184.660156 375.402344 L 172.355469 375.402344 L 172.355469 363.097656 L 160.050781 363.097656 L 160.050781 375.402344 L 147.746094 375.402344 L 147.746094 363.097656 L 160.050781 363.097656 L 160.050781 350.792969 L 147.746094 350.792969 L 147.746094 338.488281 L 135.441406 338.488281 L 135.441406 350.792969 L 147.746094 350.792969 L 147.746094 363.097656 L 135.441406 363.097656 L 135.441406 375.402344 L 123.136719 375.402344 L 123.136719 363.097656 L 110.832031 363.097656 L 110.832031 375.402344 L 123.136719 375.402344 L 123.136719 387.707031 L 110.832031 387.707031 L 110.832031 400.011719 L 123.136719 400.011719 L 123.136719 412.316406 L 135.441406 412.316406 L 135.441406 400.011719 L 123.136719 400.011719 L 123.136719 387.707031 L 135.441406 387.707031 L 135.441406 375.402344 L 147.746094 375.402344 L 147.746094 387.707031 L 160.050781 387.707031 L 160.050781 375.402344 L 172.355469 375.402344 L 172.355469 387.707031 L 160.050781 387.707031 L 160.050781 400.011719 L 172.355469 400.011719 L 172.355469 412.316406 L 184.660156 412.316406 L 184.660156 400.011719 L 196.964844 400.011719 L 196.964844 412.316406 L 184.660156 412.316406 L 184.660156 424.621094 L 172.355469 424.621094 L 172.355469 412.316406 L 160.050781 412.316406 L 160.050781 424.621094 L 172.355469 424.621094 L 172.355469 436.925781 L 160.050781 436.925781 L 160.050781 449.230469 L 172.355469 449.230469 L 172.355469 461.535156 L 184.660156 461.535156 L 184.660156 449.230469 L 196.964844 449.230469 L 196.964844 461.535156 L 184.660156 461.535156 L 184.660156 473.839844 L 172.355469 473.839844 L 172.355469 461.535156 L 160.050781 461.535156 L 160.050781 473.839844 L 147.746094 473.839844 L 147.746094 461.535156 L 160.050781 461.535156 L 160.050781 449.230469 L 147.746094 449.230469 L 147.746094 436.925781 L 135.441406 436.925781 L 135.441406 449.230469 L 147.746094 449.230469 L 147.746094 461.535156 L 135.441406 461.535156 L 135.441406 473.839844 L 123.136719 473.839844 L 123.136719 461.535156 L 110.832031 461.535156 L 110.832031 473.839844 L 123.136719 473.839844 L 123.136719 486.144531 L 110.832031 486.144531 L 110.832031 498.449219 L 123.136719 498.449219 L 123.136719 510.753906 L 135.441406 510.753906 L 135.441406 498.449219 L 147.746094 498.449219 L 147.746094 510.753906 L 135.441406 510.753906 L 135.441406 523.058594 L 123.136719 523.058594 L 123.136719 510.753906 L 110.832031 510.753906 L 110.832031 523.058594 L 98.527344 523.058594 L 98.527344 510.753906 L 110.832031 510.753906 L 110.832031 498.449219 L 98.527344 498.449219 L 98.527344 486.144531 L 86.222656 486.144531 L 86.222656 498.449219 L 73.917969 498.449219 L 73.917969 486.144531 L 86.222656 486.144531 L 86.222656 473.839844 L 98.527344 473.839844 L 98.527344 486.144531 L 110.832031 486.144531 L 110.832031 473.839844 L 98.527344 473.839844 L 98.527344 461.535156 L 110.832031 461.535156 L 110.832031 449.230469 L 98.527344 449.230469 L 98.527344 436.925781 L 86.222656 436.925781 L 86.222656 449.230469 L 98.527344 449.230469 L 98.527344 461.535156 L 86.222656 461.535156 L 86.222656 473.839844 L 73.917969 473.839844 L 73.917969 461.535156 L 61.613281 461.535156 L 61.613281 473.839844 L 49.308594 473.839844 L 49.308594 461.535156 L 61.613281 461.535156 L 61.613281 449.230469 L 49.308594 449.230469 L 49.308594 436.925781 L 37.003906 436.925781 L 37.003906 449.230469 L 49.308594 449.230469 L 49.308594 461.535156 L 37.003906 461.535156 L 37.003906 473.839844 L 24.699219 473.839844 L 24.699219 461.535156 L 12.394531 461.535156 L 12.394531 473.839844 L 24.699219 473.839844 L 24.699219 486.144531 L 12.394531 486.144531 L 12.394531 498.449219 L 24.699219 498.449219 L 24.699219 510.753906 L 37.003906 510.753906 L 37.003906 498.449219 L 24.699219 498.449219 L 24.699219 486.144531 L 37.003906 486.144531 L 37.003906 473.839844 L 49.308594 473.839844 L 49.308594 486.144531 L 61.613281 486.144531 L 61.613281 473.839844 L 73.917969 473.839844 L 73.917969 486.144531 L 61.613281 486.144531 L 61.613281 498.449219 L 73.917969 498.449219 L 73.917969 510.753906 L 86.222656 510.753906 L 86.222656 498.449219 L 98.527344 498.449219 L 98.527344 510.753906 L 86.222656 510.753906 L 86.222656 523.058594 L 73.917969 523.058594 L 73.917969 510.753906 L 61.613281 510.753906 L 61.613281 523.058594 L 73.917969 523.058594 L 73.917969 535.363281 L 61.613281 535.363281 L 61.613281 547.667969 L 73.917969 547.667969 L 73.917969 559.972656 L 86.222656 559.972656 L 86.222656 547.667969 L 98.527344 547.667969 L 98.527344 559.972656 L 86.222656 559.972656 L 86.222656 572.277344 L 73.917969 572.277344 L 73.917969 559.972656 L 61.613281 559.972656 L 61.613281 572.277344 L 49.308594 572.277344 L 49.308594 559.972656 L 61.613281 559.972656 L 61.613281 547.667969 L 49.308594 547.667969 L 49.308594 535.363281 L 37.003906 535.363281 L 37.003906 547.667969 L 49.308594 547.667969 L 49.308594 559.972656 L 37.003906 559.972656 L 37.003906 572.277344 L 24.699219 572.277344 L 24.699219 559.972656 L 12.394531 559.972656 L 12.394531 572.277344 L 24.699219 572.277344 L 24.699219 584.582031 L 12.394531 584.582031 L 12.394531 596.886719 L 24.699219 596.886719 L 24.699219 609.191406 L 37.003906 609.191406 L 37.003906 596.886719 L 24.699219 596.886719 L 24.699219 584.582031 L 37.003906 584.582031 L 37.003906 572.277344 L 49.308594 572.277344 L 49.308594 584.582031 L 61.613281 584.582031 L 61.613281 572.277344 L 73.917969 572.277344 L 73.917969 584.582031 L 61.613281 584.582031 L 61.613281 596.886719 L 73.917969 596.886719 L 73.917969 609.191406 L 86.222656 609.191406 L 86.222656 596.886719 L 98.527344 596.886719 L 98.527344 609.191406 L 86.222656 609.191406 L 86.222656 621.496094 L 73.917969 621.496094 L 73.917969 609.191406 L 61.613281 609.191406 L 61.613281 621.496094 L 73.917969 621.496094 L 73.917969 633.800781 L 61.613281 633.800781 L 61.613281 646.105469 L 73.917969 646.105469 L 73.917969 658.410156 L 86.222656 658.410156 L 86.222656 646.105469 L 73.917969 646.105469 L 73.917969 633.800781 L 86.222656 633.800781 L 86.222656 621.496094 L 98.527344 621.496094 L 98.527344 633.800781 L 110.832031 633.800781 L 110.832031 621.496094 L 123.136719 621.496094 L 123.136719 633.800781 L 110.832031 633.800781 L 110.832031 646.105469 L 123.136719 646.105469 L 123.136719 658.410156 L 135.441406 658.410156 L 135.441406 646.105469 L 123.136719 646.105469 L 123.136719 633.800781 L 135.441406 633.800781 L 135.441406 621.496094 L 147.746094 621.496094 L 147.746094 633.800781 L 160.050781 633.800781 L 160.050781 621.496094 L 147.746094 621.496094 L 147.746094 609.191406 L 160.050781 609.191406 L 160.050781 596.886719 L 147.746094 596.886719 L 147.746094 584.582031 L 135.441406 584.582031 L 135.441406 596.886719 "/>
</svg>
